<svg xmlns="http://www.w3.org/2000/svg" xmlns:xlink="http://www.w3.org/1999/xlink" viewBox="0 0 33.77 40.8"><defs><style>.cls-1{fill:none;}.cls-2{clip-path:url(#clip-path);}.cls-3{fill:#163860;}</style><clipPath id="clip-path" transform="translate(-0.04 -0.03)"><rect class="cls-1" width="33.77" height="40.83"/></clipPath></defs><title>Fichier 2</title><g id="Calque_2" data-name="Calque 2"><g id="Calque_1-2" data-name="Calque 1"><g id="Groupe_3809" data-name="Groupe 3809"><g class="cls-2"><g id="Groupe_3808" data-name="Groupe 3808"><path id="Tracé_4706" data-name="Tracé 4706" class="cls-3" d="M18,40c0-.15,3.95-14.83,14.57-14.83a1.18,1.18,0,1,0,.07-2.35h-.07c-5.19,0-9.76,2.91-13.22,8.4a26.62,26.62,0,0,0-1.31,2.34V1.17a1.18,1.18,0,0,0-2.35,0V33.53c-.39-.77-.83-1.56-1.33-2.36-3.46-5.5-8-8.4-13.21-8.4a1.18,1.18,0,0,0,0,2.35c10.57,0,14.54,14.69,14.58,14.83A1.17,1.17,0,0,0,18,40" transform="translate(-0.04 -0.03)"/></g></g></g></g></g></svg>