<svg xmlns="http://www.w3.org/2000/svg" xmlns:xlink="http://www.w3.org/1999/xlink" width="247.722" height="253.166" viewBox="0 0 247.722 253.166">
  <defs>
    <clipPath id="clip-path">
      <rect id="Rectangle_53" data-name="Rectangle 53" width="182.828" height="194.084" fill="none"/>
    </clipPath>
  </defs>
  <g id="Groupe_3783" data-name="Groupe 3783" transform="translate(-556.639 -517.417)">
    <g id="Composant_1_1" data-name="Composant 1 – 1" transform="translate(601 565)">
      <ellipse id="Ellipse_4" data-name="Ellipse 4" cx="79.5" cy="79" rx="79.5" ry="79" fill="#163860"/>
      <text id="Découvrir" transform="translate(76.352 84.545)" fill="#fcf6ee" font-size="24" font-family="Frastha-Regular, Frastha"><tspan x="-44.292" y="0">Découvrir</tspan></text>
    </g>
    <g id="Groupe_3781" data-name="Groupe 3781" transform="translate(556.639 594.683) rotate(-25)">
      <text id="C" transform="matrix(0.747, -0.664, 0.664, 0.747, 25.953, 35.49)" fill="#163860" font-size="10" font-family="Helvetica"><tspan x="0" y="0">C</tspan></text>
      <text id="L" transform="matrix(0.824, -0.567, 0.567, 0.824, 36.251, 28.094)" fill="#163860" font-size="11" font-family="Helvetica"><tspan x="0" y="0">L</tspan></text>
      <text id="I" transform="translate(44.529 21.509) rotate(-29.001)" fill="#163860" font-size="10" font-family="Helvetica"><tspan x="0" y="0">I</tspan></text>
      <text id="Q" transform="translate(51.173 17.887) rotate(-22.422)" fill="#163860" font-size="10" font-family="Helvetica"><tspan x="0" y="0">Q</tspan></text>
      <g id="Groupe_3780" data-name="Groupe 3780">
        <g id="Groupe_3779" data-name="Groupe 3779" clip-path="url(#clip-path)">
          <text id="U" transform="matrix(0.969, -0.247, 0.247, 0.969, 64.095, 12.915)" fill="#163860" font-size="10" font-family="Helvetica"><tspan x="0" y="0">U</tspan></text>
          <text id="E" transform="translate(76.42 10.096) rotate(-6.928)" fill="#163860" font-size="10" font-family="Helvetica"><tspan x="0" y="0">E</tspan></text>
          <text id="Z" transform="translate(87.64 9.905) rotate(0.929)" fill="#163860" font-size="11" font-family="Helvetica"><tspan x="0" y="0">Z</tspan></text>
          <text id="_" data-name=" " transform="matrix(0.994, 0.109, -0.109, 0.994, 100.037, 9.347)" fill="#163860" font-size="10" font-family="Helvetica"><tspan x="0" y="0"> </tspan></text>
          <text id="I-2" data-name="I" transform="translate(107.548 10.34) rotate(10.914)" fill="#163860" font-size="10" font-family="Helvetica"><tspan x="0" y="0">I</tspan></text>
          <text id="C-2" data-name="C" transform="translate(114.958 11.851) rotate(17.167)" fill="#163860" font-size="10" font-family="Helvetica"><tspan x="0" y="0">C</tspan></text>
        </g>
      </g>
      <text id="I-3" data-name="I" transform="translate(127.026 15.96) rotate(23.42)" fill="#163860" font-size="10" font-family="Helvetica"><tspan x="0" y="0">I</tspan></text>
    </g>
  </g>
</svg>
