<svg xmlns="http://www.w3.org/2000/svg" xmlns:xlink="http://www.w3.org/1999/xlink" width="110" height="109.235" viewBox="0 0 110 109.235">
  <defs>
    <clipPath id="clip-path">
      <rect id="Rectangle_82" data-name="Rectangle 82" width="110" height="109.236" fill="none"/>
    </clipPath>
    <clipPath id="clip-path-2">
      <rect id="Rectangle_83" data-name="Rectangle 83" width="40.828" height="33.767" fill="none"/>
    </clipPath>
  </defs>
  <g id="Groupe_3891" data-name="Groupe 3891" transform="translate(-628 -616.648)">
    <g id="Groupe_3807" data-name="Groupe 3807" transform="translate(628 616.648)">
      <g id="Groupe_3806" data-name="Groupe 3806" clip-path="url(#clip-path)">
        <path id="Tracé_4674" data-name="Tracé 4674" d="M76.181,119.822a42.848,42.848,0,1,1,42.848-42.848,42.9,42.9,0,0,1-42.848,42.848m0-84.244a41.4,41.4,0,1,0,41.4,41.4,41.442,41.442,0,0,0-41.4-41.4" transform="translate(-21.231 -21.736)" fill="#163860"/>
        <path id="Tracé_4675" data-name="Tracé 4675" d="M2.532,109.129l.46-1.63a3.546,3.546,0,0,1,.957-1.7,2.788,2.788,0,0,1,1.523-.715,4.544,4.544,0,0,1,1.885.158,4.558,4.558,0,0,1,1.695.852A2.806,2.806,0,0,1,9.98,107.5a3.524,3.524,0,0,1-.069,1.95l-.46,1.63Zm1.069-.66,5.283,1.491.188-.666a2.485,2.485,0,0,0,.037-1.433,2.105,2.105,0,0,0-.719-1.032,3.7,3.7,0,0,0-1.288-.638,3.674,3.674,0,0,0-1.436-.139,2.1,2.1,0,0,0-1.155.505,2.5,2.5,0,0,0-.722,1.245Z" transform="translate(-1.613 -66.909)" fill="#163860"/>
        <path id="Tracé_4676" data-name="Tracé 4676" d="M8.316,86.573l-.55.125-.577-2.072.834-.214Zm-.394,1.642,1.721-3.883.772.342L9.066,87.715l2.131.945,1.322-2.983.752.333-1.322,2.982,2.146.951L15.443,86.9l.772.342-1.721,3.884Z" transform="translate(-4.579 -53.713)" fill="#163860"/>
        <path id="Tracé_4677" data-name="Tracé 4677" d="M27.426,68.529a3.291,3.291,0,0,0,.466-1.081,2.511,2.511,0,0,0,.072-.784l.895.084a2.777,2.777,0,0,1-.084.956,4.231,4.231,0,0,1-.591,1.35,3.817,3.817,0,0,1-1.03,1.095,3.66,3.66,0,0,1-2.728.62,3.709,3.709,0,0,1-1.386-.54,3.772,3.772,0,0,1-1.085-1.024,3.639,3.639,0,0,1-.581-1.306,3.685,3.685,0,0,1-.033-1.433,3.793,3.793,0,0,1,.551-1.4,4.222,4.222,0,0,1,.969-1.111,2.786,2.786,0,0,1,.829-.483l.457.774a2.35,2.35,0,0,0-.681.4,3.349,3.349,0,0,0-.777.884,2.929,2.929,0,0,0-.423,1.054,2.6,2.6,0,0,0,.024,1.056,2.646,2.646,0,0,0,.443.964,2.98,2.98,0,0,0,.833.77,3.018,3.018,0,0,0,1.059.43,2.653,2.653,0,0,0,1.063-.009,2.6,2.6,0,0,0,.966-.43,2.936,2.936,0,0,0,.773-.832" transform="translate(-13.558 -40.426)" fill="#163860"/>
        <path id="Tracé_4678" data-name="Tracé 4678" d="M36.208,52.039a3.923,3.923,0,0,1-.905-1.179,3.638,3.638,0,0,1-.375-1.354,3.473,3.473,0,0,1,.909-2.612A3.53,3.53,0,0,1,37,46.03a3.449,3.449,0,0,1,1.345-.313,3.619,3.619,0,0,1,1.381.237,3.948,3.948,0,0,1,1.265.781,4.008,4.008,0,0,1,.913,1.179,3.623,3.623,0,0,1,.383,1.349,3.437,3.437,0,0,1-.168,1.37,3.542,3.542,0,0,1-.745,1.249,3.591,3.591,0,0,1-1.171.876,3.376,3.376,0,0,1-1.349.313,3.594,3.594,0,0,1-1.377-.244,4.063,4.063,0,0,1-1.265-.789m.646-.716a3.077,3.077,0,0,0,1.3.717,2.642,2.642,0,0,0,1.377,0,2.606,2.606,0,0,0,1.811-2.009,2.626,2.626,0,0,0-.144-1.365,3.3,3.3,0,0,0-2.142-1.931,2.618,2.618,0,0,0-1.369,0,2.621,2.621,0,0,0-1.81,2.009,2.629,2.629,0,0,0,.137,1.366,3.059,3.059,0,0,0,.846,1.213" transform="translate(-22.24 -29.118)" fill="#163860"/>
        <path id="Tracé_4679" data-name="Tracé 4679" d="M54.016,27.51l.73-.578,2.774,3.5a3.113,3.113,0,0,1,.672,1.417,2.461,2.461,0,0,1-.152,1.374,2.857,2.857,0,0,1-.894,1.147,2.9,2.9,0,0,1-1.325.612,2.452,2.452,0,0,1-1.377-.163,3.1,3.1,0,0,1-1.226-.978l-2.774-3.5.726-.575,2.743,3.461a2.311,2.311,0,0,0,.861.7,1.748,1.748,0,0,0,.95.147,1.774,1.774,0,0,0,.884-.384,1.706,1.706,0,0,0,.639-1.722,2.327,2.327,0,0,0-.487-1Z" transform="translate(-32.129 -17.154)" fill="#163860"/>
        <path id="Tracé_4680" data-name="Tracé 4680" d="M75.358,21.483l-.959.54L68.58,17.05l.916-.516,4.827,4.232-1.107-6.327.911-.513Z" transform="translate(-43.681 -8.87)" fill="#163860"/>
        <path id="Tracé_4681" data-name="Tracé 4681" d="M91.039,8.867l2.348-.89a2.3,2.3,0,0,1,1.077-.148,1.874,1.874,0,0,1,.964.392,2.13,2.13,0,0,1,.67.96A2.09,2.09,0,0,1,96.24,10.3a1.874,1.874,0,0,1-.361.839,1.579,1.579,0,0,1-.556.47l2.766,2.272-.988.374-2.635-2.251-1.084.411,1.077,2.842-.871.33Zm2.1,2.9,1.172-.444a1.7,1.7,0,0,0,.879-.676,1.215,1.215,0,0,0,.028-1.111,1.186,1.186,0,0,0-.751-.8,1.725,1.725,0,0,0-1.1.085l-1.176.446Z" transform="translate(-57.986 -4.978)" fill="#163860"/>
        <rect id="Rectangle_78" data-name="Rectangle 78" width="0.937" height="7.189" transform="matrix(0.968, -0.251, 0.251, 0.968, 40.429, 1.371)" fill="#163860"/>
        <path id="Tracé_4682" data-name="Tracé 4682" d="M122.418.392,124.9.028a2.3,2.3,0,0,1,1.083.086,1.876,1.876,0,0,1,.857.59,2.132,2.132,0,0,1,.448,1.082,2.092,2.092,0,0,1-.1,1.127,1.875,1.875,0,0,1-.532.741,1.577,1.577,0,0,1-.644.339l2.213,2.813-1.045.153-2.09-2.764-1.148.168.441,3.007-.921.135Zm1.424,3.287,1.239-.182a1.692,1.692,0,0,0,1-.472,1.215,1.215,0,0,0,.265-1.079,1.187,1.187,0,0,0-.56-.947A1.725,1.725,0,0,0,124.7.845l-1.244.183Z" transform="translate(-77.972 0)" fill="#163860"/>
        <path id="Tracé_4683" data-name="Tracé 4683" d="M186.266,3.266l1.617.5a3.54,3.54,0,0,1,1.671,1,2.788,2.788,0,0,1,.676,1.542,4.535,4.535,0,0,1-.207,1.88,4.554,4.554,0,0,1-.9,1.672,2.81,2.81,0,0,1-1.428.891,3.526,3.526,0,0,1-1.947-.12l-1.617-.5Zm.632,1.086-1.627,5.243.66.205a2.489,2.489,0,0,0,1.432.073,2.1,2.1,0,0,0,1.05-.692,3.71,3.71,0,0,0,.671-1.271,3.694,3.694,0,0,0,.176-1.431,2.1,2.1,0,0,0-.476-1.168,2.5,2.5,0,0,0-1.226-.754Z" transform="translate(-117.281 -2.08)" fill="#163860"/>
        <path id="Tracé_4684" data-name="Tracé 4684" d="M205.682,9.364l3.838,1.821-.362.762-3.006-1.426-1,2.106,2.947,1.4-.353.743-2.947-1.4-1.006,2.121,3.007,1.426-.362.762-3.838-1.82Zm1.632.436-.111-.553,2.087-.524.193.839Z" transform="translate(-129.043 -5.557)" fill="#163860"/>
        <path id="Tracé_4685" data-name="Tracé 4685" d="M224.039,29.212a3.3,3.3,0,0,0,1.069.494,2.5,2.5,0,0,0,.782.091l-.107.892a2.777,2.777,0,0,1-.953-.108,4.243,4.243,0,0,1-1.335-.626,3.8,3.8,0,0,1-1.068-1.057,3.67,3.67,0,0,1,.025-4.115,3.781,3.781,0,0,1,1.051-1.059,3.644,3.644,0,0,1,2.755-.543,3.791,3.791,0,0,1,1.387.586,4.228,4.228,0,0,1,1.086,1,2.794,2.794,0,0,1,.462.841l-.785.437a2.346,2.346,0,0,0-.379-.691,3.338,3.338,0,0,0-.864-.8,2.921,2.921,0,0,0-1.042-.45,2.609,2.609,0,0,0-1.057,0,2.65,2.65,0,0,0-.976.418,2.986,2.986,0,0,0-.791.814,3.019,3.019,0,0,0-.457,1.047,2.647,2.647,0,0,0-.018,1.063,2.59,2.59,0,0,0,.4.976,2.911,2.911,0,0,0,.812.794" transform="translate(-141.276 -14.719)" fill="#163860"/>
        <path id="Tracé_4686" data-name="Tracé 4686" d="M240.3,38.423a3.916,3.916,0,0,1,1.2-.875,3.643,3.643,0,0,1,1.363-.341,3.468,3.468,0,0,1,2.587.976,3.518,3.518,0,0,1,.835,1.182,3.455,3.455,0,0,1,.278,1.352,3.625,3.625,0,0,1-.272,1.375,3.953,3.953,0,0,1-.813,1.245,4,4,0,0,1-1.2.883,3.619,3.619,0,0,1-1.358.348,3.437,3.437,0,0,1-1.365-.2,3.521,3.521,0,0,1-1.23-.777,3.579,3.579,0,0,1-.846-1.193,3.369,3.369,0,0,1-.279-1.356,3.614,3.614,0,0,1,.28-1.371,4.045,4.045,0,0,1,.821-1.245m.7.664a3.071,3.071,0,0,0-.75,1.277,2.639,2.639,0,0,0-.033,1.376,2.6,2.6,0,0,0,1.961,1.861,2.632,2.632,0,0,0,1.369-.109,3.293,3.293,0,0,0,1.985-2.092,2.6,2.6,0,0,0,.033-1.368A2.618,2.618,0,0,0,243.6,38.17a2.625,2.625,0,0,0-1.369.1,3.067,3.067,0,0,0-1.234.815" transform="translate(-152.351 -23.696)" fill="#163860"/>
        <path id="Tracé_4687" data-name="Tracé 4687" d="M263.037,56.864l.559.745-3.57,2.683a3.1,3.1,0,0,1-1.434.635,2.457,2.457,0,0,1-1.37-.186,3.093,3.093,0,0,1-1.7-2.264,2.45,2.45,0,0,1,.2-1.372,3.113,3.113,0,0,1,1.008-1.2l3.57-2.683.556.74-3.53,2.654a2.3,2.3,0,0,0-.723.842,1.742,1.742,0,0,0-.171.946,1.773,1.773,0,0,0,.361.893,1.707,1.707,0,0,0,1.706.684,2.325,2.325,0,0,0,1.009-.462Z" transform="translate(-162.734 -33.898)" fill="#163860"/>
        <path id="Tracé_4688" data-name="Tracé 4688" d="M268.445,78.342l-.515-.972,5.12-5.691.492.929-4.354,4.718,6.353-.945.49.924Z" transform="translate(-170.653 -45.655)" fill="#163860"/>
        <path id="Tracé_4689" data-name="Tracé 4689" d="M281.375,94.452l.828,2.37a2.3,2.3,0,0,1,.121,1.08,1.883,1.883,0,0,1-.417.953,2.129,2.129,0,0,1-.977.645,2.094,2.094,0,0,1-1.126.114,1.872,1.872,0,0,1-.829-.382,1.582,1.582,0,0,1-.455-.568l-2.342,2.706-.349-1,2.319-2.576-.383-1.1-2.869,1-.308-.879Zm-2.958,2.02.414,1.182a1.7,1.7,0,0,0,.654.9,1.215,1.215,0,0,0,1.11.056,1.189,1.189,0,0,0,.824-.729,1.728,1.728,0,0,0-.057-1.1l-.415-1.188Z" transform="translate(-174.894 -60.159)" fill="#163860"/>
        <rect id="Rectangle_79" data-name="Rectangle 79" width="7.189" height="0.937" transform="translate(101.803 43.352) rotate(-13.082)" fill="#163860"/>
        <path id="Tracé_4690" data-name="Tracé 4690" d="M289.57,126.032l.3,2.492a2.308,2.308,0,0,1-.114,1.081,1.878,1.878,0,0,1-.611.842,2.132,2.132,0,0,1-1.093.42,2.1,2.1,0,0,1-1.124-.13,1.875,1.875,0,0,1-.728-.551,1.584,1.584,0,0,1-.323-.652l-2.868,2.141-.127-1.049,2.817-2.02-.14-1.151-3.016.365-.112-.924Zm-3.321,1.339.15,1.244a1.7,1.7,0,0,0,.447,1.015,1.214,1.214,0,0,0,1.072.293,1.187,1.187,0,0,0,.961-.536,1.727,1.727,0,0,0,.181-1.089l-.151-1.249Z" transform="translate(-179.89 -80.274)" fill="#163860"/>
        <path id="Tracé_4691" data-name="Tracé 4691" d="M284.871,189.514l-.544,1.6a3.543,3.543,0,0,1-1.043,1.645,2.787,2.787,0,0,1-1.558.636,4.991,4.991,0,0,1-3.523-1.194,2.815,2.815,0,0,1-.854-1.451,3.523,3.523,0,0,1,.17-1.944l.543-1.6Zm-1.1.6-5.2-1.762-.222.655a2.491,2.491,0,0,0-.11,1.429,2.1,2.1,0,0,0,.665,1.067,3.984,3.984,0,0,0,2.679.917,2.1,2.1,0,0,0,1.18-.445,2.5,2.5,0,0,0,.785-1.206Z" transform="translate(-176.607 -119.238)" fill="#163860"/>
        <path id="Tracé_4692" data-name="Tracé 4692" d="M275.82,208.738l-1.917,3.79-.753-.381,1.5-2.969-2.08-1.052-1.473,2.911-.734-.371,1.473-2.911-2.094-1.06-1.5,2.969-.753-.381,1.918-3.79Zm-.477,1.62.556-.1.47,2.1-.844.171Z" transform="translate(-170.371 -130.885)" fill="#163860"/>
        <path id="Tracé_4693" data-name="Tracé 4693" d="M257.893,226.754a3.3,3.3,0,0,0-.521,1.056,2.506,2.506,0,0,0-.111.779l-.889-.13a2.772,2.772,0,0,1,.133-.95,4.236,4.236,0,0,1,.66-1.318,3.8,3.8,0,0,1,1.084-1.041,3.652,3.652,0,0,1,2.756-.48,3.707,3.707,0,0,1,1.357.61,3.79,3.79,0,0,1,1.031,1.078,3.644,3.644,0,0,1,.472,2.767,3.8,3.8,0,0,1-.621,1.372,4.228,4.228,0,0,1-1.024,1.06,2.8,2.8,0,0,1-.853.44l-.417-.8a2.361,2.361,0,0,0,.7-.362,3.344,3.344,0,0,0,.821-.843,2.924,2.924,0,0,0,.477-1.031,2.612,2.612,0,0,0,.031-1.056,2.657,2.657,0,0,0-.393-.986,2.973,2.973,0,0,0-.793-.812,3.023,3.023,0,0,0-1.035-.484,2.652,2.652,0,0,0-1.063-.045,2.6,2.6,0,0,0-.986.379,2.92,2.92,0,0,0-.814.791" transform="translate(-163.287 -143.043)" fill="#163860"/>
        <path id="Tracé_4694" data-name="Tracé 4694" d="M248.678,242.758a3.927,3.927,0,0,1,.845,1.224,3.639,3.639,0,0,1,.305,1.371,3.468,3.468,0,0,1-1.041,2.561,3.512,3.512,0,0,1-1.2.8,3.442,3.442,0,0,1-1.359.244,3.626,3.626,0,0,1-1.367-.307,3.966,3.966,0,0,1-1.224-.844,4.012,4.012,0,0,1-.852-1.224,3.626,3.626,0,0,1-.313-1.367,3.431,3.431,0,0,1,.238-1.359,3.529,3.529,0,0,1,.807-1.21,3.578,3.578,0,0,1,1.214-.815,3.383,3.383,0,0,1,1.363-.244,3.6,3.6,0,0,1,1.363.314,4.061,4.061,0,0,1,1.224.852m-.681.683a3.072,3.072,0,0,0-1.258-.782,2.64,2.64,0,0,0-1.375-.068,2.6,2.6,0,0,0-1.91,1.914,2.63,2.63,0,0,0,.074,1.371,3.295,3.295,0,0,0,2.041,2.037,2.62,2.62,0,0,0,1.367.068,2.623,2.623,0,0,0,1.91-1.914,2.627,2.627,0,0,0-.067-1.371A3.057,3.057,0,0,0,248,243.44" transform="translate(-154.435 -153.876)" fill="#163860"/>
        <path id="Tracé_4695" data-name="Tracé 4695" d="M229.059,264.984l-.758.54-2.592-3.637a3.108,3.108,0,0,1-.6-1.449,2.464,2.464,0,0,1,.221-1.365,2.865,2.865,0,0,1,.952-1.1,2.9,2.9,0,0,1,1.355-.544,2.451,2.451,0,0,1,1.367.233,3.107,3.107,0,0,1,1.175,1.039l2.592,3.637-.755.537-2.563-3.6a2.314,2.314,0,0,0-.824-.744,1.747,1.747,0,0,0-.941-.195,1.778,1.778,0,0,0-.9.339,1.708,1.708,0,0,0-.727,1.688,2.335,2.335,0,0,0,.436,1.02Z" transform="translate(-143.369 -163.954)" fill="#163860"/>
        <path id="Tracé_4696" data-name="Tracé 4696" d="M209.4,269.818l.985-.49,5.557,5.265-.941.468-4.6-4.474.781,6.376-.936.465Z" transform="translate(-133.375 -171.544)" fill="#163860"/>
        <path id="Tracé_4697" data-name="Tracé 4697" d="M192.5,282.467l-2.39.768a2.3,2.3,0,0,1-1.083.093,1.882,1.882,0,0,1-.943-.441,2.134,2.134,0,0,1-.619-.994,2.092,2.092,0,0,1-.085-1.128,1.877,1.877,0,0,1,.4-.819,1.584,1.584,0,0,1,.579-.441l-2.644-2.412,1.006-.322,2.516,2.384,1.1-.354-.929-2.894.887-.284Zm-1.944-3.008-1.193.383a1.7,1.7,0,0,0-.913.631,1.215,1.215,0,0,0-.085,1.108,1.187,1.187,0,0,0,.708.842,1.725,1.725,0,0,0,1.1-.028l1.2-.384Z" transform="translate(-118.291 -175.553)" fill="#163860"/>
        <rect id="Rectangle_80" data-name="Rectangle 80" width="0.937" height="7.189" transform="translate(64.359 102.194) rotate(-11.606)" fill="#163860"/>
        <path id="Tracé_4698" data-name="Tracé 4698" d="M107.85,286.319l-1.625-.477a3.545,3.545,0,0,1-1.686-.975,2.793,2.793,0,0,1-.7-1.531,4.989,4.989,0,0,1,1.048-3.569,2.814,2.814,0,0,1,1.415-.913,3.531,3.531,0,0,1,1.949.09l1.625.477Zm-.649-1.076,1.547-5.267-.664-.195a2.491,2.491,0,0,0-1.432-.052,2.1,2.1,0,0,0-1.039.708,3.989,3.989,0,0,0-.806,2.715,2.1,2.1,0,0,0,.494,1.161,2.5,2.5,0,0,0,1.237.735Z" transform="translate(-66.117 -177.548)" fill="#163860"/>
        <path id="Tracé_4699" data-name="Tracé 4699" d="M87,278.133l-3.866-1.761.35-.768,3.028,1.38.966-2.121-2.968-1.352.341-.748,2.969,1.352.973-2.136-3.028-1.38.35-.768,3.866,1.761Zm-1.638-.411.12.551-2.079.555-.205-.836Z" transform="translate(-52.949 -171.863)" fill="#163860"/>
        <path id="Tracé_4700" data-name="Tracé 4700" d="M67.5,260.953a3.31,3.31,0,0,0-1.076-.478,2.5,2.5,0,0,0-.783-.079l.093-.894a2.784,2.784,0,0,1,.955.094,4.234,4.234,0,0,1,1.344.606,3.809,3.809,0,0,1,1.084,1.041,3.656,3.656,0,0,1,.593,2.734,3.7,3.7,0,0,1-.555,1.38,3.783,3.783,0,0,1-1.035,1.075,3.65,3.65,0,0,1-2.746.585,3.8,3.8,0,0,1-1.4-.565,4.227,4.227,0,0,1-1.1-.981,2.782,2.782,0,0,1-.475-.834l.778-.449a2.368,2.368,0,0,0,.39.685,3.357,3.357,0,0,0,.876.786,2.917,2.917,0,0,0,1.049.434,2.6,2.6,0,0,0,1.057-.012,2.666,2.666,0,0,0,.969-.433,2.973,2.973,0,0,0,.778-.826,3.029,3.029,0,0,0,.441-1.054,2.657,2.657,0,0,0,0-1.064,2.6,2.6,0,0,0-.419-.97,2.921,2.921,0,0,0-.824-.781" transform="translate(-39.747 -165.277)" fill="#163860"/>
        <path id="Tracé_4701" data-name="Tracé 4701" d="M51.106,252.364a3.921,3.921,0,0,1-1.188.893,3.638,3.638,0,0,1-1.358.361,3.473,3.473,0,0,1-2.6-.937,3.51,3.51,0,0,1-.852-1.169,3.449,3.449,0,0,1-.3-1.348,3.632,3.632,0,0,1,.252-1.379,3.955,3.955,0,0,1,.794-1.257,4.022,4.022,0,0,1,1.189-.9,3.619,3.619,0,0,1,1.353-.368,3.44,3.44,0,0,1,1.368.182A3.53,3.53,0,0,1,51,247.2a3.583,3.583,0,0,1,.864,1.18,3.374,3.374,0,0,1,.3,1.352,3.591,3.591,0,0,1-.259,1.375,4.042,4.042,0,0,1-.8,1.257m-.709-.653a3.07,3.07,0,0,0,.731-1.289,2.643,2.643,0,0,0,.012-1.376,2.6,2.6,0,0,0-1.99-1.831,2.629,2.629,0,0,0-1.366.13,3.294,3.294,0,0,0-1.953,2.121,2.6,2.6,0,0,0-.013,1.369,2.621,2.621,0,0,0,1.989,1.831,2.629,2.629,0,0,0,1.367-.122,3.055,3.055,0,0,0,1.222-.833" transform="translate(-28.539 -156.845)" fill="#163860"/>
        <path id="Tracé_4702" data-name="Tracé 4702" d="M26.78,233.614l-.571-.736,3.528-2.737a3.115,3.115,0,0,1,1.424-.657,2.459,2.459,0,0,1,1.373.166,2.859,2.859,0,0,1,1.137.906,2.891,2.891,0,0,1,.6,1.331,2.448,2.448,0,0,1-.178,1.375,3.11,3.11,0,0,1-.99,1.216l-3.529,2.737-.567-.732,3.49-2.707a2.3,2.3,0,0,0,.709-.854,1.746,1.746,0,0,0,.157-.949,1.78,1.78,0,0,0-.375-.887,1.708,1.708,0,0,0-1.716-.658,2.33,2.33,0,0,0-1,.477Z" transform="translate(-16.693 -146.145)" fill="#163860"/>
        <path id="Tracé_4703" data-name="Tracé 4703" d="M21.007,214.028l.53.964L16.5,220.76,16,219.839l4.282-4.783L13.94,216.1l-.5-.916Z" transform="translate(-8.558 -136.321)" fill="#163860"/>
        <path id="Tracé_4704" data-name="Tracé 4704" d="M8.515,197.723l-.865-2.357a2.3,2.3,0,0,1-.138-1.078,1.882,1.882,0,0,1,.4-.96,2.129,2.129,0,0,1,.967-.66,2.1,2.1,0,0,1,1.124-.131,1.873,1.873,0,0,1,.835.37,1.57,1.57,0,0,1,.464.561l2.3-2.742.364.992L11.69,194.33l.4,1.089,2.853-1.047.321.874Zm2.926-2.066-.431-1.176a1.7,1.7,0,0,0-.668-.886,1.216,1.216,0,0,0-1.111-.039,1.186,1.186,0,0,0-.813.742,1.725,1.725,0,0,0,.074,1.1l.433,1.181Z" transform="translate(-4.775 -121.48)" fill="#163860"/>
        <rect id="Rectangle_81" data-name="Rectangle 81" width="7.189" height="0.937" transform="translate(1.075 67.938) rotate(-13.95)" fill="#163860"/>
        <path id="Tracé_4705" data-name="Tracé 4705" d="M.364,168.464l-.339-2.487a2.3,2.3,0,0,1,.1-1.082,1.884,1.884,0,0,1,.6-.851,2.134,2.134,0,0,1,1.086-.437,2.091,2.091,0,0,1,1.126.114,1.869,1.869,0,0,1,.736.54,1.575,1.575,0,0,1,.333.647l2.835-2.184.143,1.047-2.786,2.062.157,1.149,3.011-.411.126.923Zm3.3-1.39-.169-1.241a1.7,1.7,0,0,0-.462-1.009,1.214,1.214,0,0,0-1.076-.277A1.187,1.187,0,0,0,1,165.1a1.721,1.721,0,0,0-.164,1.091l.17,1.247Z" transform="translate(0 -103.643)" fill="#163860"/>
      </g>
    </g>
    <g id="Groupe_3809" data-name="Groupe 3809" transform="translate(699.883 650.852) rotate(90)">
      <g id="Groupe_3808" data-name="Groupe 3808" transform="translate(0 0)" clip-path="url(#clip-path-2)">
        <path id="Tracé_4706" data-name="Tracé 4706" d="M39.947,15.747C39.8,15.709,25.118,11.8,25.118,1.174a1.174,1.174,0,1,0-2.347,0c0,5.189,2.905,9.76,8.4,13.218.792.5,1.578.932,2.338,1.318H1.173a1.174,1.174,0,0,0,0,2.347H33.527c-.764.39-1.556.827-2.353,1.329-5.5,3.464-8.4,8.031-8.4,13.206a1.174,1.174,0,0,0,2.347,0c0-10.569,14.684-14.536,14.832-14.575a1.174,1.174,0,0,0,0-2.272" transform="translate(0 0)" fill="#163860"/>
      </g>
    </g>
  </g>
</svg>
