<?xml version="1.0" encoding="UTF-8"?><svg xmlns="http://www.w3.org/2000/svg" viewBox="0 0 43.49 35.97"><g id="a"/><g id="b"><g id="c"><path d="M42.55,16.77c-.16-.04-15.79-4.21-15.79-15.52,0-.69-.56-1.25-1.25-1.25s-1.25,.56-1.25,1.25c0,5.53,3.09,10.4,8.95,14.08,.84,.53,1.68,.99,2.49,1.4H1.25c-.69,0-1.25,.56-1.25,1.25s.56,1.25,1.25,1.25H35.71c-.81,.42-1.66,.88-2.51,1.42-5.86,3.69-8.95,8.55-8.95,14.07,0,.69,.56,1.25,1.25,1.25s1.25-.56,1.25-1.25c0-11.26,15.64-15.48,15.8-15.52,.55-.14,.94-.64,.93-1.21s-.39-1.07-.94-1.21Z" style="fill:#163860;"/></g></g></svg>