<svg xmlns="http://www.w3.org/2000/svg" xmlns:xlink="http://www.w3.org/1999/xlink" viewBox="0 0 110 109.24"><defs><style>.cls-1{fill:none;}.cls-2{clip-path:url(#clip-path);}.cls-3{fill:#163860;}</style><clipPath id="clip-path" transform="translate(0 0)"><rect class="cls-1" width="110" height="109.24"/></clipPath></defs><title>Fichier 3</title><g id="Calque_2" data-name="Calque 2"><g id="Calque_1-2" data-name="Calque 1"><g id="Groupe_3891" data-name="Groupe 3891"><g id="Groupe_3807" data-name="Groupe 3807"><g class="cls-2"><g id="Groupe_3806" data-name="Groupe 3806"><path id="Tracé_4675" data-name="Tracé 4675" class="cls-3" d="M.92,42.22l.46-1.63a3.49,3.49,0,0,1,1-1.7,2.72,2.72,0,0,1,1.52-.71,4.43,4.43,0,0,1,1.88.15,4.56,4.56,0,0,1,1.7.86,2.78,2.78,0,0,1,.93,1.4,3.59,3.59,0,0,1-.07,1.95l-.46,1.63ZM2,41.56l5.28,1.49.19-.67A2.58,2.58,0,0,0,7.5,41a2.09,2.09,0,0,0-.72-1,3.9,3.9,0,0,0-1.29-.64,3.69,3.69,0,0,0-1.44-.14,2.15,2.15,0,0,0-1.15.51,2.45,2.45,0,0,0-.72,1.24Z" transform="translate(0 0)"/><path id="Tracé_4676" data-name="Tracé 4676" class="cls-3" d="M3.74,32.86,3.19,33l-.58-2.07.83-.21Zm-.4,1.64,1.72-3.88.78.34L4.49,34l2.13,1,1.32-3,.75.34-1.32,3,2.15.95,1.34-3,.78.34L9.92,37.41Z" transform="translate(0 0)"/><path id="Tracé_4677" data-name="Tracé 4677" class="cls-3" d="M13.87,28.1A3.24,3.24,0,0,0,14.33,27a2.56,2.56,0,0,0,.08-.78l.89.08a2.82,2.82,0,0,1-.08,1,4.4,4.4,0,0,1-.59,1.35,3.82,3.82,0,0,1-1,1.09,3.68,3.68,0,0,1-4.12.08,3.75,3.75,0,0,1-1.08-1,3.51,3.51,0,0,1-.58-1.31,3.62,3.62,0,0,1,0-1.43,3.94,3.94,0,0,1,.55-1.4,4.48,4.48,0,0,1,1-1.11,2.77,2.77,0,0,1,.83-.48l.46.77a2.22,2.22,0,0,0-.68.4,3.63,3.63,0,0,0-.78.88,2.87,2.87,0,0,0-.42,1.06,2.48,2.48,0,0,0,0,1.05,2.53,2.53,0,0,0,.45,1A2.78,2.78,0,0,0,10,29a3.08,3.08,0,0,0,1.06.43,2.7,2.7,0,0,0,1.06,0,2.65,2.65,0,0,0,1-.43,3,3,0,0,0,.77-.83" transform="translate(0 0)"/><path id="Tracé_4678" data-name="Tracé 4678" class="cls-3" d="M14,22.92a3.89,3.89,0,0,1-.91-1.18,3.53,3.53,0,0,1-.37-1.35,3.47,3.47,0,0,1,.91-2.61,3.54,3.54,0,0,1,1.16-.87,3.46,3.46,0,0,1,1.35-.31,3.62,3.62,0,0,1,1.38.24,3.85,3.85,0,0,1,1.26.78,3.74,3.74,0,0,1,.91,1.18,3.44,3.44,0,0,1,.22,2.71,3.4,3.4,0,0,1-.75,1.25,3.51,3.51,0,0,1-1.17.88,3.29,3.29,0,0,1-1.35.31,3.57,3.57,0,0,1-1.37-.24A4,4,0,0,1,14,22.92m.65-.72a3,3,0,0,0,1.3.72,2.69,2.69,0,0,0,1.38,0A2.52,2.52,0,0,0,19,19.55a3.29,3.29,0,0,0-2.14-1.93,2.46,2.46,0,0,0-1.37,0,2.62,2.62,0,0,0-1.81,2A2.56,2.56,0,0,0,13.78,21a3.11,3.11,0,0,0,.84,1.21" transform="translate(0 0)"/><path id="Tracé_4679" data-name="Tracé 4679" class="cls-3" d="M21.89,10.36l.73-.58,2.77,3.5a3.11,3.11,0,0,1,.67,1.42,2.48,2.48,0,0,1-.15,1.37A2.87,2.87,0,0,1,25,17.22a3,3,0,0,1-1.33.61,2.52,2.52,0,0,1-1.38-.16,3.24,3.24,0,0,1-1.22-1l-2.78-3.5.73-.58,2.74,3.46a2.42,2.42,0,0,0,.86.7,1.74,1.74,0,0,0,.95.15,1.78,1.78,0,0,0,.89-.38,1.72,1.72,0,0,0,.64-1.73,2.4,2.4,0,0,0-.49-1Z" transform="translate(0 0)"/><path id="Tracé_4680" data-name="Tracé 4680" class="cls-3" d="M31.68,12.61l-1,.54-5.82-5,.92-.52,4.82,4.24-1.1-6.33.91-.51Z" transform="translate(0 0)"/><path id="Tracé_4681" data-name="Tracé 4681" class="cls-3" d="M33.05,3.89,35.4,3a2.21,2.21,0,0,1,1.08-.15,1.89,1.89,0,0,1,1,.39,2.15,2.15,0,0,1,.67,1,2.05,2.05,0,0,1,.14,1.12,1.81,1.81,0,0,1-.36.84,1.47,1.47,0,0,1-.55.47L40.1,8.9l-1,.38L36.48,7l-1.08.41,1.07,2.84-.87.33Zm2.1,2.9,1.17-.45a1.64,1.64,0,0,0,.88-.67,1.21,1.21,0,0,0,0-1.11,1.16,1.16,0,0,0-.75-.8,1.8,1.8,0,0,0-1.1.08l-1.18.45Z" transform="translate(0 0)"/><rect id="Rectangle_78" data-name="Rectangle 78" class="cls-3" x="41.32" y="1.14" width="0.94" height="7.19" transform="translate(0.15 10.64) rotate(-14.54)"/><path id="Tracé_4682" data-name="Tracé 4682" class="cls-3" d="M44.45.39,46.93,0A2.33,2.33,0,0,1,48,.11a2,2,0,0,1,.86.59,2.19,2.19,0,0,1,.45,1.09,2.14,2.14,0,0,1-.1,1.12,1.89,1.89,0,0,1-.54.74A1.42,1.42,0,0,1,48,4l2.21,2.82-1,.15L47.12,4.19,46,4.36l.44,3-.92.14Zm1.42,3.29,1.24-.18a1.7,1.7,0,0,0,1-.47A1.21,1.21,0,0,0,48.37,2,1.18,1.18,0,0,0,47.81,1,1.67,1.67,0,0,0,46.73.85L45.48,1Z" transform="translate(0 0)"/><path id="Tracé_4683" data-name="Tracé 4683" class="cls-3" d="M69,1.19l1.61.5a3.46,3.46,0,0,1,1.67,1A2.77,2.77,0,0,1,73,4.23a4.63,4.63,0,0,1-.21,1.88,4.52,4.52,0,0,1-.9,1.67,2.73,2.73,0,0,1-1.43.89,3.56,3.56,0,0,1-1.94-.12l-1.62-.5Zm.63,1.08L68,7.52l.66.2a2.49,2.49,0,0,0,1.43.07,2.07,2.07,0,0,0,1-.69,3.61,3.61,0,0,0,.67-1.27A3.66,3.66,0,0,0,72,4.4a2.1,2.1,0,0,0-.48-1.17,2.4,2.4,0,0,0-1.22-.75Z" transform="translate(0 0)"/><path id="Tracé_4684" data-name="Tracé 4684" class="cls-3" d="M76.64,3.81l3.84,1.82-.36.76L77.11,5l-1,2.11,3,1.4-.36.74-2.94-1.4-1,2.12,3,1.43-.36.76L73.56,10.3Zm1.63.43-.11-.55,2.09-.52.19.83Z" transform="translate(0 0)"/><path id="Tracé_4685" data-name="Tracé 4685" class="cls-3" d="M82.76,14.49a3.37,3.37,0,0,0,1.07.5,2.6,2.6,0,0,0,.78.09l-.1.89a2.84,2.84,0,0,1-1-.11,4.37,4.37,0,0,1-1.33-.62,3.86,3.86,0,0,1-1.07-1.06,3.68,3.68,0,0,1,0-4.12,3.5,3.5,0,0,1,1-1.05A3.62,3.62,0,0,1,85,8.46a3.73,3.73,0,0,1,1.39.59,4.11,4.11,0,0,1,1.08,1,2.67,2.67,0,0,1,.47.84l-.79.44a2,2,0,0,0-.38-.69,3.27,3.27,0,0,0-.86-.8,2.91,2.91,0,0,0-1-.45,2.37,2.37,0,0,0-1.06,0,2.73,2.73,0,0,0-1,.41,3.08,3.08,0,0,0-.79.82,3,3,0,0,0-.45,1,2.57,2.57,0,0,0,0,1.07,2.44,2.44,0,0,0,.4,1,2.81,2.81,0,0,0,.81.8" transform="translate(0 0)"/><path id="Tracé_4686" data-name="Tracé 4686" class="cls-3" d="M88,14.73a3.84,3.84,0,0,1,1.2-.88,3.78,3.78,0,0,1,1.36-.34,3.47,3.47,0,0,1,2.59,1,3.37,3.37,0,0,1,.83,1.18A3.33,3.33,0,0,1,94.21,17a3.65,3.65,0,0,1-.27,1.38,4.09,4.09,0,0,1-.81,1.24,3.84,3.84,0,0,1-1.2.88,3.43,3.43,0,0,1-1.36.35,3.38,3.38,0,0,1-1.37-.2,3.66,3.66,0,0,1-2.07-2,3.33,3.33,0,0,1-.28-1.35A3.57,3.57,0,0,1,87.13,16,3.87,3.87,0,0,1,88,14.73m.7.66a3.08,3.08,0,0,0-.75,1.28,2.69,2.69,0,0,0,0,1.38,2.6,2.6,0,0,0,2,1.86,2.66,2.66,0,0,0,1.37-.11,3.29,3.29,0,0,0,2-2.09,2.53,2.53,0,0,0-1.93-3.24,2.77,2.77,0,0,0-1.37.1,3,3,0,0,0-1.23.82" transform="translate(0 0)"/><path id="Tracé_4687" data-name="Tracé 4687" class="cls-3" d="M100.3,23l.56.74-3.57,2.68a3,3,0,0,1-1.43.64,2.47,2.47,0,0,1-1.37-.19,3.09,3.09,0,0,1-1.7-2.26,2.39,2.39,0,0,1,.2-1.37A3,3,0,0,1,94,22l3.57-2.69.55.74-3.53,2.66a2.34,2.34,0,0,0-.72.84,1.72,1.72,0,0,0-.17,1,1.74,1.74,0,0,0,.36.89,1.69,1.69,0,0,0,1.7.68,2.33,2.33,0,0,0,1-.46Z" transform="translate(0 0)"/><path id="Tracé_4688" data-name="Tracé 4688" class="cls-3" d="M97.79,32.69l-.51-1L102.4,26l.49.93-4.36,4.72,6.36-.94.49.92Z" transform="translate(0 0)"/><path id="Tracé_4689" data-name="Tracé 4689" class="cls-3" d="M106.48,34.29l.83,2.37a2.22,2.22,0,0,1,.12,1.08,1.93,1.93,0,0,1-.42,1,2.12,2.12,0,0,1-1,.64,2.18,2.18,0,0,1-1.13.12,1.87,1.87,0,0,1-.83-.39,1.53,1.53,0,0,1-.45-.56l-2.35,2.7-.34-1,2.31-2.57-.38-1.1-2.87,1-.31-.88Zm-3,2,.42,1.18a1.71,1.71,0,0,0,.65.91,1.24,1.24,0,0,0,1.11.05,1.14,1.14,0,0,0,.82-.73,1.66,1.66,0,0,0,0-1.1l-.42-1.19Z" transform="translate(0 0)"/><rect id="Rectangle_79" data-name="Rectangle 79" class="cls-3" x="101.82" y="42.53" width="7.19" height="0.94" transform="translate(-7 24.98) rotate(-13.08)"/><path id="Tracé_4690" data-name="Tracé 4690" class="cls-3" d="M109.68,45.76l.3,2.49a2.34,2.34,0,0,1-.11,1.08,1.85,1.85,0,0,1-.62.84,2.4,2.4,0,0,1-2.21.29,1.81,1.81,0,0,1-.73-.55,1.47,1.47,0,0,1-.32-.65l-2.87,2.14-.13-1,2.82-2-.14-1.15-3,.37-.11-.93Zm-3.32,1.34.15,1.24a1.7,1.7,0,0,0,.45,1,1.22,1.22,0,0,0,1.07.29,1.17,1.17,0,0,0,1-.54,1.71,1.71,0,0,0,.18-1.09L109,46.77Z" transform="translate(0 0)"/><path id="Tracé_4691" data-name="Tracé 4691" class="cls-3" d="M108.26,70.28l-.54,1.6a3.61,3.61,0,0,1-1,1.64,2.81,2.81,0,0,1-1.56.64A5,5,0,0,1,101.6,73a2.77,2.77,0,0,1-.86-1.45,3.48,3.48,0,0,1,.17-1.94l.54-1.6Zm-1.1.6L102,69.11l-.22.66a2.58,2.58,0,0,0-.11,1.43,2.13,2.13,0,0,0,.67,1.07,4,4,0,0,0,2.68.91,2.11,2.11,0,0,0,1.18-.44,2.57,2.57,0,0,0,.78-1.21Z" transform="translate(0 0)"/><path id="Tracé_4692" data-name="Tracé 4692" class="cls-3" d="M105.45,77.85l-1.92,3.79-.75-.38,1.5-3-2.08-1.05-1.47,2.91-.74-.37,1.48-2.91-2.1-1.06-1.5,3-.75-.38L99,74.61ZM105,79.47l.56-.1.47,2.1-.85.17Z" transform="translate(0 0)"/><path id="Tracé_4693" data-name="Tracé 4693" class="cls-3" d="M94.61,83.71a3.08,3.08,0,0,0-.52,1.06,2.54,2.54,0,0,0-.12.78l-.88-.13a2.52,2.52,0,0,1,.13-1,4.09,4.09,0,0,1,.66-1.32,3.69,3.69,0,0,1,1.08-1,3.68,3.68,0,0,1,4.12.13,3.66,3.66,0,0,1,1,1.08,3.62,3.62,0,0,1,.47,2.76,4,4,0,0,1-.62,1.37,4.32,4.32,0,0,1-1,1.06,2.46,2.46,0,0,1-.85.44l-.42-.8a2.21,2.21,0,0,0,.7-.36,3.27,3.27,0,0,0,.82-.84,2.86,2.86,0,0,0,.48-1,2.7,2.7,0,0,0,0-1.06,2.46,2.46,0,0,0-.39-1,3.08,3.08,0,0,0-.79-.82,3.17,3.17,0,0,0-1-.48,2.7,2.7,0,0,0-2,.33,2.94,2.94,0,0,0-.81.8" transform="translate(0 0)"/><path id="Tracé_4694" data-name="Tracé 4694" class="cls-3" d="M94.24,88.88a3.87,3.87,0,0,1,.85,1.23,3.55,3.55,0,0,1,.3,1.37,3.42,3.42,0,0,1-1,2.56,3.61,3.61,0,0,1-1.2.8,3.49,3.49,0,0,1-1.36.24,3.38,3.38,0,0,1-1.36-.31,3.85,3.85,0,0,1-1.23-.84,4,4,0,0,1-.85-1.22A3.6,3.6,0,0,1,88,91.34,3.33,3.33,0,0,1,88.27,90a3.68,3.68,0,0,1,.81-1.21A3.57,3.57,0,0,1,90.3,88a3.32,3.32,0,0,1,1.36-.25A3.56,3.56,0,0,1,93,88a4,4,0,0,1,1.23.85m-.68.68a3.07,3.07,0,0,0-1.26-.78,2.69,2.69,0,0,0-1.38-.07A2.61,2.61,0,0,0,89,90.63,2.56,2.56,0,0,0,89.1,92a3.29,3.29,0,0,0,2,2,2.52,2.52,0,0,0,1.36.07,2.59,2.59,0,0,0,1.91-1.91,2.65,2.65,0,0,0-.06-1.37,3.23,3.23,0,0,0-.78-1.26" transform="translate(0 0)"/><path id="Tracé_4695" data-name="Tracé 4695" class="cls-3" d="M85.69,101l-.76.54-2.59-3.64a3.06,3.06,0,0,1-.6-1.45A2.45,2.45,0,0,1,82,95.12a3,3,0,0,1,1-1.1,2.94,2.94,0,0,1,1.36-.54,2.36,2.36,0,0,1,1.36.23,3.12,3.12,0,0,1,1.18,1l2.59,3.63-.75.54-2.57-3.6a2.24,2.24,0,0,0-.82-.74,1.71,1.71,0,0,0-1.84.14,1.72,1.72,0,0,0-.73,1.69,2.27,2.27,0,0,0,.44,1Z" transform="translate(0 0)"/><path id="Tracé_4696" data-name="Tracé 4696" class="cls-3" d="M76,98.27l1-.49,5.56,5.27-.94.47L77,99l.78,6.38-.94.46Z" transform="translate(0 0)"/><path id="Tracé_4697" data-name="Tracé 4697" class="cls-3" d="M74.21,106.91l-2.39.77a2.34,2.34,0,0,1-1.08.1,1.91,1.91,0,0,1-.95-.45,2.14,2.14,0,0,1-.62-1,2.07,2.07,0,0,1-.08-1.13,1.85,1.85,0,0,1,.4-.82,1.57,1.57,0,0,1,.58-.44l-2.65-2.41,1-.32L71,103.6l1.1-.35-.93-2.9.88-.28Zm-1.95-3-1.19.38a1.67,1.67,0,0,0-.91.63,1.45,1.45,0,0,0,.62,2,1.73,1.73,0,0,0,1.1,0l1.2-.38Z" transform="translate(0 0)"/><rect id="Rectangle_80" data-name="Rectangle 80" class="cls-3" x="65.07" y="102.03" width="0.94" height="7.19" transform="translate(-19.91 15.35) rotate(-11.61)"/><path id="Tracé_4698" data-name="Tracé 4698" class="cls-3" d="M41.73,108.77l-1.62-.48a3.52,3.52,0,0,1-1.69-1,2.84,2.84,0,0,1-.7-1.53,5,5,0,0,1,1.05-3.57,2.8,2.8,0,0,1,1.42-.91,3.38,3.38,0,0,1,1.94.09l1.63.47Zm-.65-1.07,1.55-5.27-.66-.2a2.61,2.61,0,0,0-1.44,0,2.07,2.07,0,0,0-1,.71,4,4,0,0,0-.81,2.71,2.11,2.11,0,0,0,.49,1.17,2.58,2.58,0,0,0,1.24.73Z" transform="translate(0 0)"/><path id="Tracé_4699" data-name="Tracé 4699" class="cls-3" d="M34.05,106.27l-3.86-1.76.34-.77,3,1.38,1-2.12-3-1.35.34-.75,3,1.35,1-2.13-3-1.38.35-.77L37,99.73Zm-1.64-.41.12.55-2.08.55-.2-.83Z" transform="translate(0 0)"/><path id="Tracé_4700" data-name="Tracé 4700" class="cls-3" d="M27.75,95.68a3,3,0,0,0-1.07-.48,2.34,2.34,0,0,0-.79-.08l.1-.9a2.77,2.77,0,0,1,1,.1,4.43,4.43,0,0,1,1.35.6,4,4,0,0,1,1.08,1A3.62,3.62,0,0,1,30,98.7a3.85,3.85,0,0,1-.55,1.38,3.66,3.66,0,0,1-1,1.07,3.67,3.67,0,0,1-4.14,0,4.12,4.12,0,0,1-1.1-1,2.65,2.65,0,0,1-.48-.83l.78-.45a2.36,2.36,0,0,0,.39.69,3.29,3.29,0,0,0,.88.78,3,3,0,0,0,1.05.44,2.66,2.66,0,0,0,1.05,0,2.49,2.49,0,0,0,1-.43,2.81,2.81,0,0,0,.78-.83A3,3,0,0,0,29,98.49a2.7,2.7,0,0,0,0-1.06,2.47,2.47,0,0,0-.42-1,2.9,2.9,0,0,0-.82-.78" transform="translate(0 0)"/><path id="Tracé_4701" data-name="Tracé 4701" class="cls-3" d="M22.57,95.52a4,4,0,0,1-1.19.89,3.62,3.62,0,0,1-1.36.36,3.5,3.5,0,0,1-2.6-.93,3.63,3.63,0,0,1-.85-1.17,3.53,3.53,0,0,1-.3-1.35,3.63,3.63,0,0,1,.25-1.38,3.94,3.94,0,0,1,.79-1.26,4.35,4.35,0,0,1,1.19-.9,3.83,3.83,0,0,1,1.36-.37,3.3,3.3,0,0,1,1.36.19,3.41,3.41,0,0,1,1.24.75,3.55,3.55,0,0,1,.86,1.18,3.21,3.21,0,0,1,.3,1.36,3.54,3.54,0,0,1-.25,1.37,4.15,4.15,0,0,1-.8,1.26m-.71-.65a3.25,3.25,0,0,0,.73-1.29,2.69,2.69,0,0,0,0-1.38,2.61,2.61,0,0,0-2-1.83,2.67,2.67,0,0,0-1.37.13,3.29,3.29,0,0,0-1.95,2.12,2.55,2.55,0,0,0,0,1.37,2.54,2.54,0,0,0,3.35,1.71,3.12,3.12,0,0,0,1.23-.83" transform="translate(0 0)"/><path id="Tracé_4702" data-name="Tracé 4702" class="cls-3" d="M10.09,87.47l-.57-.74L13,84a3.08,3.08,0,0,1,1.43-.66,2.39,2.39,0,0,1,1.37.17,3.07,3.07,0,0,1,1.74,2.23,2.5,2.5,0,0,1-.18,1.38,3.07,3.07,0,0,1-1,1.21l-3.53,2.74-.57-.73,3.49-2.71a2.16,2.16,0,0,0,.71-.85,1.72,1.72,0,0,0-.22-1.84,1.71,1.71,0,0,0-1.71-.66,2.33,2.33,0,0,0-1,.48Z" transform="translate(0 0)"/><path id="Tracé_4703" data-name="Tracé 4703" class="cls-3" d="M12.45,77.71l.53,1-5,5.77-.5-.92,4.28-4.78-6.34,1-.5-.92Z" transform="translate(0 0)"/><path id="Tracé_4704" data-name="Tracé 4704" class="cls-3" d="M3.74,76.24l-.86-2.35a2.23,2.23,0,0,1-.14-1.08,1.87,1.87,0,0,1,.4-1,2.06,2.06,0,0,1,1-.66,2.08,2.08,0,0,1,1.13-.13,1.84,1.84,0,0,1,.83.37,1.59,1.59,0,0,1,.47.56l2.3-2.74.36,1L6.91,72.85l.4,1.09,2.86-1,.32.88Zm2.93-2.06L6.24,73a1.73,1.73,0,0,0-.67-.88,1.18,1.18,0,0,0-1.11,0,1.17,1.17,0,0,0-.82.74,1.73,1.73,0,0,0,.08,1.1l.43,1.18Z" transform="translate(0 0)"/><rect id="Rectangle_81" data-name="Rectangle 81" class="cls-3" x="1.08" y="67.06" width="7.19" height="0.94" transform="translate(-16.14 3.12) rotate(-13.95)"/><path id="Tracé_4705" data-name="Tracé 4705" class="cls-3" d="M.36,64.82,0,62.33a2.21,2.21,0,0,1,.1-1.08,1.82,1.82,0,0,1,.6-.85A2.24,2.24,0,0,1,1.81,60a2.18,2.18,0,0,1,1.13.12,1.77,1.77,0,0,1,.73.54,1.56,1.56,0,0,1,.34.65l2.83-2.19L7,60.13,4.2,62.19l.16,1.15,3-.41.12.92Zm3.3-1.39L3.5,62.19a1.7,1.7,0,0,0-.47-1A1.23,1.23,0,0,0,2,60.9a1.22,1.22,0,0,0-1,.56,1.71,1.71,0,0,0-.16,1.09L1,63.8Z" transform="translate(0 0)"/></g></g></g></g></g></g></svg>