{
	"bufferViews":[{
		"buffer":0,
		"byteOffset":0,
		"byteLength":51840,
		"target":34963
	},
	{
		"buffer":0,
		"byteOffset":51840,
		"byteLength":217408,
		"target":34962,
		"byteStride":32
	},
	{
		"buffer":1,
		"byteOffset":0,
		"byteLength":0
	}],
	"nodes":[{
		"name":"tubes ",
		"translation":[-1.1757386922836304,
		-7.988016339231094e-17,
		1.304542064666748],
		"rotation":[0.1496942639350891,
		0.6910800337791443,
		0.6910800337791443,
		-0.1496942639350891],
		"scale":[1.03411865234375,
		1.03411865234375,
		1.03411865234375],
		"mesh":0
	}],
	"asset":{
		"version":"2.0",
		"generator":"Created using the official Cinema 4D glTF Exporter 1.000x284978"
	},
	"scenes":[{
		"nodes":[0]
	}],
	"meshes":[{
		"name":"tubes ",
		"primitives":[{
			"attributes":{
				"POSITION":1,
				"NORMAL":2,
				"TEXCOORD_0":3
			},
			"indices":0
		}]
	}],
	"accessors":[{
		"bufferView":0,
		"type":"SCALAR",
		"componentType":5123,
		"max":[6793],
		"count":25920,
		"byteOffset":0,
		"min":[0]
	},
	{
		"bufferView":1,
		"type":"VEC3",
		"componentType":5126,
		"max":[4.066439628601074,
		4.10916805267334,
		2.34394907951355],
		"count":6794,
		"byteOffset":0,
		"min":[-4.34060525894165,
		-4.596491813659668,
		-1.1036276158162507e-16]
	},
	{
		"bufferView":1,
		"type":"VEC3",
		"componentType":5126,
		"max":[0.999924898147583,
		0.9999986886978149,
		0.9996144771575928],
		"count":6794,
		"byteOffset":12,
		"min":[-0.9999779462814331,
		-0.9999455213546753,
		-0.4205712080001831]
	},
	{
		"bufferView":1,
		"type":"VEC2",
		"componentType":5126,
		"max":[0.96875,
		0.96875],
		"count":6794,
		"byteOffset":24,
		"min":[0.03125,
		0.03125]
	},
	{
		"bufferView":2,
		"type":"SCALAR",
		"componentType":5126,
		"max":[],
		"count":0,
		"byteOffset":0,
		"min":[]
	},
	{
		"bufferView":2,
		"type":"SCALAR",
		"componentType":5126,
		"max":[],
		"count":0,
		"byteOffset":0,
		"min":[]
	}],
	"buffers":[{
		"uri":"data:application/octet-stream;base64,",
		"byteLength":269248
	},
	{
		"uri":"data:application/octet-stream;base64,",
		"byteLength":0
	}],
	"animations":[{
		"samplers":[{
			"input":4,
			"interpolation":"LINEAR",
			"output":5
		}],
		"channels":[{
			"sampler":0,
			"target":{
				"node":0,
				"path":"weights"
			}
		}]
	}]
}