{
	"asset":{
		"version":"2.0",
		"generator":"Created using the official Cinema 4D glTF Exporter 1.000x284978"
	},
	"scenes":[{
		"nodes":[0,
		1,
		2,
		3]
	}],
	"nodes":[{
		"name":"Bouchon_fiole",
		"translation":[0.0,
		17.80604362487793,
		0.0],
		"rotation":[0.0,
		0.0,
		0.0,
		-1.0],
		"scale":[1.0,
		1.0,
		1.0],
		"mesh":0
	},
	{
		"name":"Texture_fiole",
		"translation":[0.0,
		0.045184966176748279,
		0.0],
		"rotation":[0.0,
		0.0,
		0.0,
		-1.0],
		"scale":[1.0,
		1.0,
		1.0],
		"mesh":1
	},
	{
		"name":"Bouteille_fiole",
		"translation":[0.0,
		0.045184966176748279,
		0.0],
		"rotation":[0.0,
		0.0,
		0.0,
		-1.0],
		"scale":[1.0,
		1.0,
		1.0],
		"mesh":2
	},
	{
		"name":"etiquette",
		"translation":[0.0,
		0.045184966176748279,
		0.0],
		"rotation":[0.0,
		0.5085557699203491,
		0.0,
		-0.8610290288925171],
		"scale":[1.0,
		1.0,
		1.0],
		"mesh":3
	}],
	"meshes":[{
		"name":"Bouchon_fiole",
		"primitives":[{
			"attributes":{
				"POSITION":1,
				"NORMAL":2
			},
			"indices":0
		}]
	},
	{
		"name":"Texture_fiole",
		"primitives":[{
			"attributes":{
				"POSITION":4,
				"NORMAL":5,
				"TEXCOORD_0":6
			},
			"indices":3
		}]
	},
	{
		"name":"Bouteille_fiole",
		"primitives":[{
			"attributes":{
				"POSITION":8,
				"NORMAL":9,
				"TEXCOORD_0":10
			},
			"indices":7
		}]
	},
	{
		"name":"etiquette",
		"primitives":[{
			"attributes":{
				"POSITION":12,
				"NORMAL":13,
				"TEXCOORD_0":14
			},
			"indices":11,
			"material":0
		}]
	}],
	"accessors":[{
		"bufferView":0,
		"min":[0],
		"type":"SCALAR",
		"componentType":5123,
		"count":5376,
		"byteOffset":0,
		"max":[1243]
	},
	{
		"bufferView":1,
		"min":[-0.719692587852478,
		-0.4594809412956238,
		-0.719692587852478],
		"type":"VEC3",
		"componentType":5126,
		"count":1244,
		"byteOffset":0,
		"max":[0.719692587852478,
		0.4594809412956238,
		0.719692587852478]
	},
	{
		"bufferView":1,
		"min":[-0.9982456564903259,
		-1.0,
		-0.9982456564903259],
		"type":"VEC3",
		"componentType":5126,
		"count":1244,
		"byteOffset":12,
		"max":[0.9982456564903259,
		1.0,
		0.9982456564903259]
	},
	{
		"bufferView":2,
		"min":[0],
		"type":"SCALAR",
		"componentType":5123,
		"count":810,
		"byteOffset":0,
		"max":[184]
	},
	{
		"bufferView":3,
		"min":[-0.6014694571495056,
		0.00008850265294313431,
		-0.6014694571495056],
		"type":"VEC3",
		"componentType":5126,
		"count":185,
		"byteOffset":0,
		"max":[0.6014694571495056,
		17.30008888244629,
		0.6014694571495056]
	},
	{
		"bufferView":3,
		"min":[-1.0,
		-0.9999999403953552,
		-1.0],
		"type":"VEC3",
		"componentType":5126,
		"count":185,
		"byteOffset":12,
		"max":[1.0,
		0.9741262197494507,
		1.0]
	},
	{
		"bufferView":3,
		"min":[0.0,
		0.058158375322818759],
		"type":"VEC2",
		"componentType":5126,
		"count":185,
		"byteOffset":24,
		"max":[1.0,
		1.0]
	},
	{
		"bufferView":4,
		"min":[0],
		"type":"SCALAR",
		"componentType":5123,
		"count":810,
		"byteOffset":0,
		"max":[184]
	},
	{
		"bufferView":5,
		"min":[-0.699999988079071,
		0.00008850265294313431,
		-0.699999988079071],
		"type":"VEC3",
		"componentType":5126,
		"count":185,
		"byteOffset":0,
		"max":[0.699999988079071,
		17.30008888244629,
		0.699999988079071]
	},
	{
		"bufferView":5,
		"min":[-1.0,
		-1.0,
		-1.0],
		"type":"VEC3",
		"componentType":5126,
		"count":185,
		"byteOffset":12,
		"max":[1.0,
		0.9807029366493225,
		1.0]
	},
	{
		"bufferView":5,
		"min":[0.0,
		0.058158375322818759],
		"type":"VEC2",
		"componentType":5126,
		"count":185,
		"byteOffset":24,
		"max":[1.0,
		1.0]
	},
	{
		"bufferView":6,
		"min":[0],
		"type":"SCALAR",
		"componentType":5123,
		"count":192,
		"byteOffset":0,
		"max":[55]
	},
	{
		"bufferView":7,
		"min":[-0.716386616230011,
		10.944540977478028,
		-0.716386616230011],
		"type":"VEC3",
		"componentType":5126,
		"count":56,
		"byteOffset":0,
		"max":[0.716386616230011,
		17.027379989624025,
		0.716386616230011]
	},
	{
		"bufferView":7,
		"min":[-1.0,
		0.0,
		-1.0],
		"type":"VEC3",
		"componentType":5126,
		"count":56,
		"byteOffset":12,
		"max":[1.0,
		0.0,
		1.0]
	},
	{
		"bufferView":7,
		"min":[0.0,
		0.00018950662342831492],
		"type":"VEC2",
		"componentType":5126,
		"count":56,
		"byteOffset":24,
		"max":[1.0,
		1.0]
	}],
	"bufferViews":[{
		"buffer":0,
		"byteOffset":0,
		"byteLength":10752,
		"target":34963
	},
	{
		"buffer":0,
		"byteOffset":10752,
		"byteLength":29856,
		"target":34962,
		"byteStride":24
	},
	{
		"buffer":1,
		"byteOffset":0,
		"byteLength":1620,
		"target":34963
	},
	{
		"buffer":1,
		"byteOffset":1620,
		"byteLength":5920,
		"target":34962,
		"byteStride":32
	},
	{
		"buffer":2,
		"byteOffset":0,
		"byteLength":1620,
		"target":34963
	},
	{
		"buffer":2,
		"byteOffset":1620,
		"byteLength":5920,
		"target":34962,
		"byteStride":32
	},
	{
		"buffer":3,
		"byteOffset":0,
		"byteLength":384,
		"target":34963
	},
	{
		"buffer":3,
		"byteOffset":384,
		"byteLength":1792,
		"target":34962,
		"byteStride":32
	}],
	"buffers":[{
		"uri":"data:application/octet-stream;base64,",
		"byteLength":40608
	},
	{
		"uri":"data:application/octet-stream;base64,",
		"byteLength":7540
	},
	{
		"uri":"data:application/octet-stream;base64,",
		"byteLength":7540
	},
	{
		"uri":"data:application/octet-stream;base64,",
		"byteLength":2176
	}],
	"images":[{
		"uri":"data:image/jpeg;base64,"
	}],
	"samplers":[{
		"magFilter":9729,
		"minFilter":9729,
		"wrapS":10497,
		"wrapT":10497
	}],
	"textures":[{
		"sampler":0,
		"source":0
	}],
	"materials":[{
		"pbrMetallicRoughness":{
			"baseColorTexture":{
				"index":0
			},
			"baseColorFactor":[0.8,
			0.8,
			0.8,
			1.0],
			"metallicFactor":0.0,
			"roughnessFactor":0.5
		},
		"emissiveFactor":[0.0,
		0.0,
		0.0],
		"alphaMode":"OPAQUE",
		"doubleSided":false,
		"name":"Mat.1"
	}]
}