{
	"asset":{
		"version":"2.0",
		"generator":"Created using the official Cinema 4D glTF Exporter 1.000x284978"
	},
	"scenes":[{
		"nodes":[0,
		2,
		3]
	}],
	"nodes":[{
		"name":"Bouchon_epices",
		"children":[1]
	},
	{
		"name":"Cylinder",
		"translation":[0.0,
		12.339799880981446,
		0.0],
		"rotation":[0.0,
		0.0,
		0.0,
		-1.0],
		"scale":[1.0,
		1.0,
		1.0],
		"mesh":0
	},
	{
		"name":"Bouteille_epices",
		"mesh":1
	},
	{
		"name":"Texture_intérieur",
		"mesh":2
	}],
	"meshes":[{
		"name":"Cylinder",
		"primitives":[{
			"attributes":{
				"POSITION":1,
				"NORMAL":2
			},
			"indices":0
		}]
	},
	{
		"name":"Bouteille_epices",
		"primitives":[{
			"attributes":{
				"POSITION":4,
				"NORMAL":5,
				"TEXCOORD_0":6
			},
			"indices":3
		}]
	},
	{
		"name":"Texture_intérieur",
		"primitives":[{
			"attributes":{
				"POSITION":8,
				"NORMAL":9,
				"TEXCOORD_0":10
			},
			"indices":7
		}]
	}],
	"accessors":[{
		"bufferView":0,
		"type":"SCALAR",
		"componentType":5123,
		"count":19152,
		"byteOffset":0,
		"min":[0],
		"max":[3193]
	},
	{
		"bufferView":1,
		"type":"VEC3",
		"componentType":5126,
		"count":3194,
		"byteOffset":0,
		"min":[-1.8221442699432374,
		-0.3430480360984802,
		-1.8221771717071534],
		"max":[1.822231411933899,
		0.38203197717666628,
		1.8221771717071534]
	},
	{
		"bufferView":1,
		"type":"VEC3",
		"componentType":5126,
		"count":3194,
		"byteOffset":12,
		"min":[-0.9999999403953552,
		-1.0,
		-0.9999092221260071],
		"max":[1.0,
		1.0,
		0.9999091029167175]
	},
	{
		"bufferView":2,
		"type":"SCALAR",
		"componentType":5123,
		"count":18423,
		"byteOffset":0,
		"min":[0],
		"max":[3430]
	},
	{
		"bufferView":3,
		"type":"VEC3",
		"componentType":5126,
		"count":3431,
		"byteOffset":0,
		"min":[-2.9926705360412599,
		-0.000642595230601728,
		-3.0137641429901125],
		"max":[3.020806312561035,
		12.300687789916993,
		3.0137641429901125]
	},
	{
		"bufferView":3,
		"type":"VEC3",
		"componentType":5126,
		"count":3431,
		"byteOffset":12,
		"min":[-1.0,
		-1.0,
		-0.9997466206550598],
		"max":[0.999946653842926,
		1.0,
		0.9997466206550598]
	},
	{
		"bufferView":3,
		"type":"VEC2",
		"componentType":5126,
		"count":3431,
		"byteOffset":24,
		"min":[0.0,
		0.0],
		"max":[1.0,
		1.0]
	},
	{
		"bufferView":4,
		"type":"SCALAR",
		"componentType":5123,
		"count":9522,
		"byteOffset":0,
		"min":[0],
		"max":[1875]
	},
	{
		"bufferView":5,
		"type":"VEC3",
		"componentType":5126,
		"count":1876,
		"byteOffset":0,
		"min":[-2.9094033241271974,
		0.034047722816467288,
		-2.929910182952881],
		"max":[2.9367563724517824,
		11.698003768920899,
		2.929910182952881]
	},
	{
		"bufferView":5,
		"type":"VEC3",
		"componentType":5126,
		"count":1876,
		"byteOffset":12,
		"min":[-0.9958798289299011,
		-1.0,
		-0.9976687431335449],
		"max":[1.0,
		0.9999699592590332,
		0.9997466206550598]
	},
	{
		"bufferView":5,
		"type":"VEC2",
		"componentType":5126,
		"count":1876,
		"byteOffset":24,
		"min":[0.0,
		0.0],
		"max":[1.0,
		1.0]
	}],
	"bufferViews":[{
		"buffer":0,
		"byteOffset":0,
		"byteLength":38304,
		"target":34963
	},
	{
		"buffer":0,
		"byteOffset":38304,
		"byteLength":76656,
		"target":34962,
		"byteStride":24
	},
	{
		"buffer":1,
		"byteOffset":0,
		"byteLength":36846,
		"target":34963
	},
	{
		"buffer":1,
		"byteOffset":36848,
		"byteLength":109792,
		"target":34962,
		"byteStride":32
	},
	{
		"buffer":2,
		"byteOffset":0,
		"byteLength":19044,
		"target":34963
	},
	{
		"buffer":2,
		"byteOffset":19044,
		"byteLength":60032,
		"target":34962,
		"byteStride":32
	}],
	"buffers":[{
		"uri":"data:application/octet-stream;base64,",
		"byteLength":114960
	},
	{
		"uri":"data:application/octet-stream;base64,",
		"byteLength":146640
	},
	{
		"uri":"data:application/octet-stream;base64,",
		"byteLength":79076
	}]
}