{
	"asset":{
		"version":"2.0",
		"generator":"Created using the official Cinema 4D glTF Exporter 1.000x284978"
	},
	"scenes":[{
		"nodes":[0,
		1,
		4,
		5]
	}],
	"nodes":[{
		"name":"etiquette",
		"translation":[0.0,
		0.0,
		0.0],
		"rotation":[0.0,
		0.43440788984298708,
		0.0,
		0.900716245174408],
		"scale":[1.0,
		1.0,
		1.0],
		"mesh":0
	},
	{
		"name":"Huile",
		"children":[2,
		3]
	},
	{
		"name":"Huile",
		"translation":[0.0,
		11.023702621459961,
		0.0],
		"rotation":[0.0,
		0.0,
		0.0,
		-1.0],
		"scale":[1.0,
		1.0,
		1.0],
		"mesh":1
	},
	{
		"name":"Cube",
		"translation":[0.0,
		17.42334747314453,
		0.0],
		"rotation":[0.0,
		0.0,
		0.0,
		-1.0],
		"scale":[1.0,
		1.0,
		1.0],
		"mesh":2
	},
	{
		"name":"Bouchon",
		"translation":[0.0,
		16.818187713623048,
		0.0],
		"rotation":[0.0,
		0.0,
		0.0,
		-1.0],
		"scale":[1.0,
		1.0,
		1.0],
		"mesh":3
	},
	{
		"name":"Bouteille",
		"mesh":4
	}],
	"meshes":[{
		"name":"etiquette",
		"primitives":[{
			"attributes":{
				"POSITION":1,
				"NORMAL":2,
				"TEXCOORD_0":3
			},
			"indices":0,
			"material":0
		}]
	},
	{
		"name":"Huile",
		"primitives":[{
			"attributes":{
				"POSITION":5,
				"NORMAL":6,
				"TEXCOORD_0":7
			},
			"indices":4
		}]
	},
	{
		"name":"Cube",
		"primitives":[{
			"attributes":{
				"POSITION":9,
				"NORMAL":10,
				"TEXCOORD_0":11
			},
			"indices":8
		}]
	},
	{
		"name":"Bouchon",
		"primitives":[{
			"attributes":{
				"POSITION":13,
				"NORMAL":14
			},
			"indices":12
		}]
	},
	{
		"name":"Bouteille",
		"primitives":[{
			"attributes":{
				"POSITION":16,
				"NORMAL":17,
				"TEXCOORD_0":18
			},
			"indices":15
		}]
	}],
	"accessors":[{
		"bufferView":0,
		"min":[0],
		"type":"SCALAR",
		"componentType":5123,
		"count":192,
		"byteOffset":0,
		"max":[65]
	},
	{
		"bufferView":1,
		"min":[-3.0230557918548586,
		0.7770753502845764,
		-3.0230557918548586],
		"type":"VEC3",
		"componentType":5126,
		"count":66,
		"byteOffset":0,
		"max":[3.0230557918548586,
		11.085695266723633,
		3.0230557918548586]
	},
	{
		"bufferView":1,
		"min":[-0.9994615316390991,
		0.0,
		-0.9994615316390991],
		"type":"VEC3",
		"componentType":5126,
		"count":66,
		"byteOffset":12,
		"max":[0.9994615316390991,
		0.0,
		0.9994615316390991]
	},
	{
		"bufferView":1,
		"min":[0.0003255211340729147,
		0.00032552110496908426],
		"type":"VEC2",
		"componentType":5126,
		"count":66,
		"byteOffset":24,
		"max":[0.9993498921394348,
		0.7368924617767334]
	},
	{
		"bufferView":2,
		"min":[0],
		"type":"SCALAR",
		"componentType":5123,
		"count":17352,
		"byteOffset":0,
		"max":[3225]
	},
	{
		"bufferView":3,
		"min":[-2.7934160232543947,
		-11.023808479309082,
		-2.7934160232543947],
		"type":"VEC3",
		"componentType":5126,
		"count":3226,
		"byteOffset":0,
		"max":[2.7934160232543947,
		2.471489191055298,
		2.7934160232543947]
	},
	{
		"bufferView":3,
		"min":[-0.9999499917030335,
		-0.9999999403953552,
		-0.9999499917030335],
		"type":"VEC3",
		"componentType":5126,
		"count":3226,
		"byteOffset":12,
		"max":[0.9999499917030335,
		0.9999891519546509,
		0.9999499917030335]
	},
	{
		"bufferView":3,
		"min":[0.0,
		0.0],
		"type":"VEC2",
		"componentType":5126,
		"count":3226,
		"byteOffset":24,
		"max":[1.0,
		1.0]
	},
	{
		"bufferView":4,
		"min":[0],
		"type":"SCALAR",
		"componentType":5123,
		"count":192,
		"byteOffset":0,
		"max":[63]
	},
	{
		"bufferView":5,
		"min":[-1.1910297870635987,
		-3.9281551837921144,
		-1.1910297870635987],
		"type":"VEC3",
		"componentType":5126,
		"count":64,
		"byteOffset":0,
		"max":[1.1910297870635987,
		-3.9281551837921144,
		1.1910297870635987]
	},
	{
		"bufferView":5,
		"min":[0.0,
		1.0,
		0.0],
		"type":"VEC3",
		"componentType":5126,
		"count":64,
		"byteOffset":12,
		"max":[0.0,
		1.0,
		0.0]
	},
	{
		"bufferView":5,
		"min":[0.3483983278274536,
		0.3483983278274536],
		"type":"VEC2",
		"componentType":5126,
		"count":64,
		"byteOffset":24,
		"max":[0.6516016721725464,
		0.6516016721725464]
	},
	{
		"bufferView":6,
		"min":[0],
		"type":"SCALAR",
		"componentType":5123,
		"count":528,
		"byteOffset":0,
		"max":[106]
	},
	{
		"bufferView":7,
		"min":[-1.7390170097351075,
		-0.9366060495376587,
		-1.7390170097351075],
		"type":"VEC3",
		"componentType":5126,
		"count":107,
		"byteOffset":0,
		"max":[1.7390170097351075,
		0.9366060495376587,
		1.7390170097351075]
	},
	{
		"bufferView":7,
		"min":[-0.997809112071991,
		-1.0,
		-0.997809112071991],
		"type":"VEC3",
		"componentType":5126,
		"count":107,
		"byteOffset":12,
		"max":[0.997809112071991,
		1.0,
		0.9999999403953552]
	},
	{
		"bufferView":8,
		"min":[0],
		"type":"SCALAR",
		"componentType":5123,
		"count":18048,
		"byteOffset":0,
		"max":[3299]
	},
	{
		"bufferView":9,
		"min":[-3.0081465244293215,
		-0.00010742216545622796,
		-3.0081465244293215],
		"type":"VEC3",
		"componentType":5126,
		"count":3300,
		"byteOffset":0,
		"max":[3.0081465244293215,
		16.28743553161621,
		3.0081465244293215]
	},
	{
		"bufferView":9,
		"min":[-0.9999436140060425,
		-0.9999999403953552,
		-0.9999436140060425],
		"type":"VEC3",
		"componentType":5126,
		"count":3300,
		"byteOffset":12,
		"max":[0.9999436140060425,
		0.9999880194664002,
		0.9999436140060425]
	},
	{
		"bufferView":9,
		"min":[0.0,
		0.0],
		"type":"VEC2",
		"componentType":5126,
		"count":3300,
		"byteOffset":24,
		"max":[1.0,
		1.0]
	}],
	"bufferViews":[{
		"buffer":0,
		"byteOffset":0,
		"byteLength":384,
		"target":34963
	},
	{
		"buffer":0,
		"byteOffset":384,
		"byteLength":2112,
		"target":34962,
		"byteStride":32
	},
	{
		"buffer":1,
		"byteOffset":0,
		"byteLength":34704,
		"target":34963
	},
	{
		"buffer":1,
		"byteOffset":34704,
		"byteLength":103232,
		"target":34962,
		"byteStride":32
	},
	{
		"buffer":2,
		"byteOffset":0,
		"byteLength":384,
		"target":34963
	},
	{
		"buffer":2,
		"byteOffset":384,
		"byteLength":2048,
		"target":34962,
		"byteStride":32
	},
	{
		"buffer":3,
		"byteOffset":0,
		"byteLength":1056,
		"target":34963
	},
	{
		"buffer":3,
		"byteOffset":1056,
		"byteLength":2568,
		"target":34962,
		"byteStride":24
	},
	{
		"buffer":4,
		"byteOffset":0,
		"byteLength":36096,
		"target":34963
	},
	{
		"buffer":4,
		"byteOffset":36096,
		"byteLength":105600,
		"target":34962,
		"byteStride":32
	}],
	"buffers":[{
		"uri":"data:application/octet-stream;base64,",
		"byteLength":2496
	},
	{
		"uri":"data:application/octet-stream;base64,",
		"byteLength":137936
	},
	{
		"uri":"data:application/octet-stream;base64,",
		"byteLength":2432
	},
	{
		"uri":"data:application/octet-stream;base64,",
		"byteLength":3624
	},
	{
		"uri":"data:application/octet-stream;base64,",
		"byteLength":141696
	}],
	"images":[{
		"uri":"data:image/jpeg;base64,"
	}],
	"samplers":[{
		"magFilter":9729,
		"minFilter":9729,
		"wrapS":10497,
		"wrapT":10497
	}],
	"textures":[{
		"sampler":0,
		"source":0
	}],
	"materials":[{
		"pbrMetallicRoughness":{
			"baseColorTexture":{
				"index":0
			},
			"baseColorFactor":[0.8,
			0.8,
			0.8,
			1.0],
			"metallicFactor":0.0,
			"roughnessFactor":0.5
		},
		"emissiveFactor":[0.0,
		0.0,
		0.0],
		"alphaMode":"OPAQUE",
		"doubleSided":false,
		"name":"etiquette.1"
	}]
}