{
	"asset":{
		"version":"2.0",
		"generator":"Created using the official Cinema 4D glTF Exporter 1.000x284978"
	},
	"scenes":[{
		"nodes":[0,
		1,
		4,
		6]
	}],
	"nodes":[{
		"name":"etiquette.1",
		"translation":[0.0,
		0.0,
		0.0],
		"rotation":[0.0,
		0.6457409858703613,
		0.0,
		-0.7635565400123596],
		"scale":[1.0,
		1.0,
		1.0],
		"mesh":0
	},
	{
		"name":"Texture-epices",
		"children":[2,
		3]
	},
	{
		"name":"texture",
		"mesh":1
	},
	{
		"name":"Cube",
		"translation":[0.0,
		16.392436981201173,
		0.0],
		"rotation":[0.0,
		0.0,
		0.0,
		-1.0],
		"scale":[1.0,
		1.0,
		1.0],
		"mesh":2
	},
	{
		"name":"Bouchon_epices",
		"children":[5]
	},
	{
		"name":"Cylinder",
		"translation":[0.0,
		12.339799880981446,
		0.0],
		"rotation":[0.0,
		0.0,
		0.0,
		-1.0],
		"scale":[1.0,
		1.0,
		1.0],
		"mesh":3
	},
	{
		"name":"Bouteille_epices",
		"mesh":4
	}],
	"meshes":[{
		"name":"etiquette.1",
		"primitives":[{
			"attributes":{
				"POSITION":1,
				"NORMAL":2,
				"TEXCOORD_0":3
			},
			"indices":0,
			"material":0
		}]
	},
	{
		"name":"texture",
		"primitives":[{
			"attributes":{
				"POSITION":5,
				"NORMAL":6,
				"TEXCOORD_0":7
			},
			"indices":4
		}]
	},
	{
		"name":"Cube",
		"primitives":[{
			"attributes":{
				"POSITION":9,
				"NORMAL":10,
				"TEXCOORD_0":11
			},
			"indices":8
		}]
	},
	{
		"name":"Cylinder",
		"primitives":[{
			"attributes":{
				"POSITION":13,
				"NORMAL":14
			},
			"indices":12
		}]
	},
	{
		"name":"Bouteille_epices",
		"primitives":[{
			"attributes":{
				"POSITION":16,
				"NORMAL":17,
				"TEXCOORD_0":18
			},
			"indices":15
		}]
	}],
	"accessors":[{
		"bufferView":0,
		"min":[0],
		"type":"SCALAR",
		"componentType":5123,
		"count":138,
		"byteOffset":0,
		"max":[47]
	},
	{
		"bufferView":1,
		"min":[-3.0104198455810549,
		0.7700392603874207,
		-3.0316388607025148],
		"type":"VEC3",
		"componentType":5126,
		"count":48,
		"byteOffset":0,
		"max":[3.0387227535247804,
		8.334400177001954,
		3.0316388607025148]
	},
	{
		"bufferView":1,
		"min":[-0.9958798289299011,
		-1.5133992725734156e-15,
		-0.9997466206550598],
		"type":"VEC3",
		"componentType":5126,
		"count":48,
		"byteOffset":12,
		"max":[0.9989520907402039,
		0.0,
		0.9997466206550598]
	},
	{
		"bufferView":1,
		"min":[0.0003255211340729147,
		0.00032552110496908426],
		"type":"VEC2",
		"componentType":5126,
		"count":48,
		"byteOffset":24,
		"max":[0.9993498921394348,
		0.6301250457763672]
	},
	{
		"bufferView":2,
		"min":[0],
		"type":"SCALAR",
		"componentType":5123,
		"count":3504,
		"byteOffset":0,
		"max":[685]
	},
	{
		"bufferView":3,
		"min":[-2.9094033241271974,
		0.034047722816467288,
		-2.929910182952881],
		"type":"VEC3",
		"componentType":5126,
		"count":686,
		"byteOffset":0,
		"max":[2.9367563724517824,
		9.477116584777832,
		2.929910182952881]
	},
	{
		"bufferView":3,
		"min":[-0.9900551438331604,
		-1.0,
		-0.9970217943191528],
		"type":"VEC3",
		"componentType":5126,
		"count":686,
		"byteOffset":12,
		"max":[0.9993553757667542,
		0.9242064952850342,
		0.9970296621322632]
	},
	{
		"bufferView":3,
		"min":[0.14005717635154725,
		0.0],
		"type":"VEC2",
		"componentType":5126,
		"count":686,
		"byteOffset":24,
		"max":[0.5919924974441528,
		1.0]
	},
	{
		"bufferView":4,
		"min":[0],
		"type":"SCALAR",
		"componentType":5123,
		"count":420,
		"byteOffset":0,
		"max":[156]
	},
	{
		"bufferView":5,
		"min":[-2.1486051082611086,
		-7.644393444061279,
		-2.917174816131592],
		"type":"VEC3",
		"componentType":5126,
		"count":157,
		"byteOffset":0,
		"max":[2.5418336391448976,
		-6.915320873260498,
		2.2573201656341554]
	},
	{
		"bufferView":5,
		"min":[-0.22041547298431397,
		0.9455586671829224,
		-0.2856760025024414],
		"type":"VEC3",
		"componentType":5126,
		"count":157,
		"byteOffset":12,
		"max":[0.2305440604686737,
		0.9998945593833923,
		0.1485854983329773]
	},
	{
		"bufferView":5,
		"min":[0.34994930028915408,
		0.2967302203178406],
		"type":"VEC2",
		"componentType":5126,
		"count":157,
		"byteOffset":24,
		"max":[0.6774016618728638,
		0.6575731039047241]
	},
	{
		"bufferView":6,
		"min":[0],
		"type":"SCALAR",
		"componentType":5123,
		"count":19152,
		"byteOffset":0,
		"max":[3193]
	},
	{
		"bufferView":7,
		"min":[-1.8221442699432374,
		-0.3430480360984802,
		-1.8221771717071534],
		"type":"VEC3",
		"componentType":5126,
		"count":3194,
		"byteOffset":0,
		"max":[1.822231411933899,
		0.38203197717666628,
		1.8221771717071534]
	},
	{
		"bufferView":7,
		"min":[-0.9999999403953552,
		-1.0,
		-0.9999091029167175],
		"type":"VEC3",
		"componentType":5126,
		"count":3194,
		"byteOffset":12,
		"max":[1.0,
		1.0,
		0.9999092221260071]
	},
	{
		"bufferView":8,
		"min":[0],
		"type":"SCALAR",
		"componentType":5123,
		"count":18423,
		"byteOffset":0,
		"max":[3430]
	},
	{
		"bufferView":9,
		"min":[-2.9926705360412599,
		-0.000642595230601728,
		-3.0137641429901125],
		"type":"VEC3",
		"componentType":5126,
		"count":3431,
		"byteOffset":0,
		"max":[3.020806312561035,
		12.300687789916993,
		3.0137641429901125]
	},
	{
		"bufferView":9,
		"min":[-1.0,
		-1.0,
		-0.9997466206550598],
		"type":"VEC3",
		"componentType":5126,
		"count":3431,
		"byteOffset":12,
		"max":[0.999946653842926,
		1.0,
		0.9997466206550598]
	},
	{
		"bufferView":9,
		"min":[0.0,
		0.0],
		"type":"VEC2",
		"componentType":5126,
		"count":3431,
		"byteOffset":24,
		"max":[1.0,
		1.0]
	}],
	"bufferViews":[{
		"buffer":0,
		"byteOffset":0,
		"byteLength":276,
		"target":34963
	},
	{
		"buffer":0,
		"byteOffset":276,
		"byteLength":1536,
		"target":34962,
		"byteStride":32
	},
	{
		"buffer":1,
		"byteOffset":0,
		"byteLength":7008,
		"target":34963
	},
	{
		"buffer":1,
		"byteOffset":7008,
		"byteLength":21952,
		"target":34962,
		"byteStride":32
	},
	{
		"buffer":2,
		"byteOffset":0,
		"byteLength":840,
		"target":34963
	},
	{
		"buffer":2,
		"byteOffset":840,
		"byteLength":5024,
		"target":34962,
		"byteStride":32
	},
	{
		"buffer":3,
		"byteOffset":0,
		"byteLength":38304,
		"target":34963
	},
	{
		"buffer":3,
		"byteOffset":38304,
		"byteLength":76656,
		"target":34962,
		"byteStride":24
	},
	{
		"buffer":4,
		"byteOffset":0,
		"byteLength":36846,
		"target":34963
	},
	{
		"buffer":4,
		"byteOffset":36848,
		"byteLength":109792,
		"target":34962,
		"byteStride":32
	}],
	"buffers":[{
		"uri":"data:application/octet-stream;base64,",
		"byteLength":1812
	},
	{
		"uri":"data:application/octet-stream;base64,",
		"byteLength":28960
	},
	{
		"uri":"data:application/octet-stream;base64,",
		"byteLength":5864
	},
	{
		"uri":"data:application/octet-stream;base64,",
		"byteLength":114960
	},
	{
		"uri":"data:application/octet-stream;base64,",
		"byteLength":146640
	}],
	"images":[{
		"uri":"data:image/jpeg;base64,"
	}],
	"samplers":[{
		"magFilter":9729,
		"minFilter":9729,
		"wrapS":10497,
		"wrapT":10497
	}],
	"textures":[{
		"sampler":0,
		"source":0
	}],
	"materials":[{
		"pbrMetallicRoughness":{
			"baseColorTexture":{
				"index":0
			},
			"baseColorFactor":[0.8,
			0.8,
			0.8,
			1.0],
			"metallicFactor":0.0,
			"roughnessFactor":0.5
		},
		"emissiveFactor":[0.0,
		0.0,
		0.0],
		"alphaMode":"OPAQUE",
		"doubleSided":false,
		"name":"etiquette"
	}]
}