{
	"meshes":[{
		"name":"Drink",
		"primitives":[{
			"attributes":{
				"POSITION":1,
				"NORMAL":2,
				"TEXCOORD_0":3
			},
			"indices":0
		}]
	}],
	"asset":{
		"version":"2.0",
		"generator":"Created using the official Cinema 4D glTF Exporter 1.000x284978"
	},
	"scenes":[{
		"nodes":[0]
	}],
	"nodes":[{
		"name":"Drink",
		"children":[1]
	},
	{
		"name":"Drink",
		"mesh":0
	}],
	"accessors":[{
		"bufferView":0,
		"type":"SCALAR",
		"componentType":5123,
		"count":22071,
		"byteOffset":0,
		"min":[0],
		"max":[10068]
	},
	{
		"bufferView":1,
		"type":"VEC3",
		"componentType":5126,
		"count":10069,
		"byteOffset":0,
		"min":[-5.80521821975708,
		0.007057576440274715,
		-5.806426525115967],
		"max":[5.80521821975708,
		27.423444747924806,
		5.801594257354736]
	},
	{
		"bufferView":1,
		"type":"VEC3",
		"componentType":5126,
		"count":10069,
		"byteOffset":12,
		"min":[-1.0,
		-1.0,
		-1.0],
		"max":[1.0,
		1.0,
		1.0]
	},
	{
		"bufferView":1,
		"type":"VEC2",
		"componentType":5126,
		"count":10069,
		"byteOffset":24,
		"min":[-50.356544494628909,
		-5.581181526184082],
		"max":[10.622723579406739,
		7.173825263977051]
	}],
	"bufferViews":[{
		"buffer":0,
		"byteOffset":0,
		"byteLength":44142,
		"target":34963
	},
	{
		"buffer":0,
		"byteOffset":44144,
		"byteLength":322208,
		"target":34962,
		"byteStride":32
	}],
	"buffers":[{
		"uri":"data:application/octet-stream;base64,",
		"byteLength":366352
	}]
}