{
	"asset":{
		"generator":"Created using the official Cinema 4D glTF Exporter 1.000x284978",
		"version":"2.0"
	},
	"nodes":[{
		"name":"ToothBrush.obj",
		"children":[1,
		2]
	},
	{
		"name":"Plank",
		"mesh":0
	},
	{
		"name":"Brush",
		"mesh":1
	}],
	"scenes":[{
		"nodes":[0]
	}],
	"meshes":[{
		"name":"Plank",
		"primitives":[{
			"attributes":{
				"POSITION":1,
				"NORMAL":2,
				"TEXCOORD_0":3
			},
			"indices":0,
			"material":0
		}]
	},
	{
		"name":"Brush",
		"primitives":[{
			"attributes":{
				"POSITION":5,
				"NORMAL":6,
				"TEXCOORD_0":7
			},
			"indices":4,
			"material":1
		}]
	}],
	"accessors":[{
		"bufferView":0,
		"type":"SCALAR",
		"componentType":5123,
		"count":5184,
		"byteOffset":0,
		"min":[0],
		"max":[2705]
	},
	{
		"bufferView":1,
		"type":"VEC3",
		"componentType":5126,
		"count":2706,
		"byteOffset":0,
		"min":[-25.360780715942384,
		-0.28395798802375796,
		-1.0],
		"max":[0.9243819713592529,
		0.28395798802375796,
		1.0]
	},
	{
		"bufferView":1,
		"type":"VEC3",
		"componentType":5126,
		"count":2706,
		"byteOffset":12,
		"min":[-1.0,
		-1.0,
		-0.9999688267707825],
		"max":[0.9880625605583191,
		1.0,
		0.9999688267707825]
	},
	{
		"bufferView":1,
		"type":"VEC2",
		"componentType":5126,
		"count":2706,
		"byteOffset":24,
		"min":[0.125,
		0.0],
		"max":[0.875,
		1.0]
	},
	{
		"bufferView":2,
		"type":"SCALAR",
		"componentType":5123,
		"count":18792,
		"byteOffset":0,
		"min":[0],
		"max":[6463]
	},
	{
		"bufferView":3,
		"type":"VEC3",
		"componentType":5126,
		"count":6464,
		"byteOffset":0,
		"min":[-25.109840393066408,
		0.27602699398994448,
		-0.7063509821891785],
		"max":[-20.04166603088379,
		1.9118469953536988,
		0.6482530236244202]
	},
	{
		"bufferView":3,
		"type":"VEC3",
		"componentType":5126,
		"count":6464,
		"byteOffset":12,
		"min":[-0.9994617104530335,
		0.0,
		-0.9994617104530335],
		"max":[0.9994617700576782,
		1.0,
		0.999461829662323]
	},
	{
		"bufferView":3,
		"type":"VEC2",
		"componentType":5126,
		"count":6464,
		"byteOffset":24,
		"min":[0.009999999776482582,
		0.5099999904632568],
		"max":[0.49000000953674319,
		0.9900000095367432]
	}],
	"bufferViews":[{
		"buffer":0,
		"byteOffset":0,
		"byteLength":10368,
		"target":34963
	},
	{
		"buffer":0,
		"byteOffset":10368,
		"byteLength":86592,
		"target":34962,
		"byteStride":32
	},
	{
		"buffer":1,
		"byteOffset":0,
		"byteLength":37584,
		"target":34963
	},
	{
		"buffer":1,
		"byteOffset":37584,
		"byteLength":206848,
		"target":34962,
		"byteStride":32
	}],
	"buffers":[{
		"uri":"data:application/octet-stream;base64,",
		"byteLength":96960
	},
	{
		"uri":"data:application/octet-stream;base64,",
		"byteLength":244432
	}],
	"materials":[{
		"pbrMetallicRoughness":{
			"baseColorFactor":[1.0,
			1.0,
			1.0,
			1.0],
			"metallicFactor":1.0,
			"roughnessFactor":1.0
		},
		"emissiveFactor":[0.0,
		0.0,
		0.0],
		"alphaMode":"OPAQUE",
		"doubleSided":false,
		"name":""
	},
	{
		"pbrMetallicRoughness":{
			"baseColorFactor":[1.0,
			1.0,
			1.0,
			1.0],
			"metallicFactor":1.0,
			"roughnessFactor":1.0
		},
		"emissiveFactor":[0.0,
		0.0,
		0.0],
		"alphaMode":"OPAQUE",
		"doubleSided":false,
		"name":""
	}]
}