{
	"asset":{
		"generator":"Created using the official Cinema 4D glTF Exporter 1.000x284978",
		"version":"2.0"
	},
	"nodes":[{
		"name":"Can",
		"mesh":0
	}],
	"scenes":[{
		"nodes":[0]
	}],
	"meshes":[{
		"name":"Can",
		"primitives":[{
			"attributes":{
				"POSITION":1,
				"NORMAL":2,
				"TEXCOORD_0":3
			},
			"indices":0
		}]
	}],
	"accessors":[{
		"bufferView":0,
		"type":"SCALAR",
		"componentType":5123,
		"count":6324,
		"byteOffset":0,
		"min":[0],
		"max":[1490]
	},
	{
		"bufferView":1,
		"type":"VEC3",
		"componentType":5126,
		"count":1491,
		"byteOffset":0,
		"min":[-6.59028959274292,
		-8.52449893951416,
		-6.59028959274292],
		"max":[6.59028959274292,
		8.59400749206543,
		6.590283393859863]
	},
	{
		"bufferView":1,
		"type":"VEC3",
		"componentType":5126,
		"count":1491,
		"byteOffset":12,
		"min":[-1.0,
		-0.7298125624656677,
		-1.0],
		"max":[1.0,
		0.7298125624656677,
		1.0]
	},
	{
		"bufferView":1,
		"type":"VEC2",
		"componentType":5126,
		"count":1491,
		"byteOffset":24,
		"min":[0.0,
		0.0],
		"max":[0.6654549837112427,
		1.0]
	}],
	"bufferViews":[{
		"buffer":0,
		"byteOffset":0,
		"byteLength":12648,
		"target":34963
	},
	{
		"buffer":0,
		"byteOffset":12648,
		"byteLength":47712,
		"target":34962,
		"byteStride":32
	}],
	"buffers":[{
		"uri":"data:application/octet-stream;base64,",
		"byteLength":60360
	}]
}