{
	"asset":{
		"version":"2.0",
		"generator":"Created using the official Cinema 4D glTF Exporter 1.000x284978"
	},
	"scenes":[{
		"nodes":[0]
	}],
	"nodes":[{
		"name":"Drink",
		"translation":[0.0,
		-0.6116018891334534,
		0.0],
		"rotation":[0.0,
		0.0,
		0.0,
		-1.0],
		"scale":[1.0,
		1.0,
		1.0],
		"mesh":0
	}],
	"meshes":[{
		"name":"Drink",
		"primitives":[{
			"indices":0,
			"attributes":{
				"POSITION":1,
				"NORMAL":2,
				"TEXCOORD_0":3
			}
		}]
	}],
	"accessors":[{
		"bufferView":0,
		"type":"SCALAR",
		"min":[0],
		"componentType":5123,
		"count":5760,
		"byteOffset":0,
		"max":[1253]
	},
	{
		"bufferView":1,
		"type":"VEC3",
		"min":[-7.3216705322265629,
		0.5841935276985169,
		-7.3216705322265629],
		"componentType":5126,
		"count":1254,
		"byteOffset":0,
		"max":[7.3216705322265629,
		28.03264617919922,
		7.3216705322265629]
	},
	{
		"bufferView":1,
		"type":"VEC3",
		"min":[-0.9994615316390991,
		-1.0,
		-0.9994615316390991],
		"componentType":5126,
		"count":1254,
		"byteOffset":12,
		"max":[0.9994615316390991,
		1.0,
		0.9994615316390991]
	},
	{
		"bufferView":1,
		"type":"VEC2",
		"min":[0.0,
		0.0],
		"componentType":5126,
		"count":1254,
		"byteOffset":24,
		"max":[1.0,
		1.0]
	}],
	"bufferViews":[{
		"buffer":0,
		"byteOffset":0,
		"byteLength":11520,
		"target":34963
	},
	{
		"buffer":0,
		"byteOffset":11520,
		"byteLength":40128,
		"target":34962,
		"byteStride":32
	}],
	"buffers":[{
		"uri":"data:application/octet-stream;base64,",
		"byteLength":51648
	}]
}