{
	"meshes":[{
		"name":"PlasticBag",
		"primitives":[{
			"attributes":{
				"POSITION":1,
				"NORMAL":2
			},
			"indices":0
		}]
	}],
	"asset":{
		"version":"2.0",
		"generator":"Created using the official Cinema 4D glTF Exporter 1.000x284978"
	},
	"scenes":[{
		"nodes":[0]
	}],
	"nodes":[{
		"name":"PlasticBag",
		"mesh":0
	}],
	"accessors":[{
		"bufferView":0,
		"type":"SCALAR",
		"componentType":5123,
		"count":33636,
		"byteOffset":0,
		"min":[0],
		"max":[5607]
	},
	{
		"bufferView":1,
		"type":"VEC3",
		"componentType":5126,
		"count":5608,
		"byteOffset":0,
		"min":[-22.971336364746095,
		-0.8338090777397156,
		-13.030593872070313],
		"max":[22.863332748413087,
		28.977588653564454,
		17.272140502929689]
	},
	{
		"bufferView":1,
		"type":"VEC3",
		"componentType":5126,
		"count":5608,
		"byteOffset":12,
		"min":[-0.999832808971405,
		-0.9999755620956421,
		-0.9993762373924255],
		"max":[0.9993383288383484,
		0.9999483227729797,
		0.9998698234558106]
	}],
	"bufferViews":[{
		"buffer":0,
		"byteOffset":0,
		"byteLength":67272,
		"target":34963
	},
	{
		"buffer":0,
		"byteOffset":67272,
		"byteLength":134592,
		"target":34962,
		"byteStride":24
	}],
	"buffers":[{
		"uri":"data:application/octet-stream;base64,",
		"byteLength":201864
	}]
}