{
	"meshes":[{
		"name":"Caps",
		"primitives":[{
			"attributes":{
				"POSITION":1,
				"NORMAL":2
			},
			"indices":0
		}]
	},
	{
		"name":"Body",
		"primitives":[{
			"attributes":{
				"POSITION":4,
				"NORMAL":5
			},
			"indices":3
		}]
	}],
	"asset":{
		"version":"2.0",
		"generator":"Created using the official Cinema 4D glTF Exporter 1.000x284978"
	},
	"scenes":[{
		"nodes":[0]
	}],
	"nodes":[{
		"name":"Bottle.obj",
		"children":[1,
		2]
	},
	{
		"translation":[0.0,
		41.76600646972656,
		0.0],
		"name":"Caps",
		"rotation":[0.0,
		0.0,
		0.0,
		-1.0],
		"scale":[1.0,
		1.0,
		1.0],
		"mesh":0
	},
	{
		"name":"Body",
		"mesh":1
	}],
	"accessors":[{
		"bufferView":0,
		"type":"SCALAR",
		"componentType":5123,
		"count":7284,
		"byteOffset":0,
		"min":[0],
		"max":[1215]
	},
	{
		"bufferView":1,
		"type":"VEC3",
		"componentType":5126,
		"count":1216,
		"byteOffset":0,
		"min":[-2.3119025230407717,
		-1.4020013809204102,
		-2.3940811157226564],
		"max":[2.3119025230407717,
		1.0245647430419922,
		2.2297239303588869]
	},
	{
		"bufferView":1,
		"type":"VEC3",
		"componentType":5126,
		"count":1216,
		"byteOffset":12,
		"min":[-0.9976875185966492,
		-1.0,
		-0.9977188110351563],
		"max":[0.9976875185966492,
		0.999000072479248,
		0.9977188110351563]
	},
	{
		"bufferView":2,
		"type":"SCALAR",
		"componentType":5123,
		"count":16608,
		"byteOffset":0,
		"min":[0],
		"max":[2769]
	},
	{
		"bufferView":3,
		"type":"VEC3",
		"componentType":5126,
		"count":2770,
		"byteOffset":0,
		"min":[-5.948746681213379,
		0.09329582005739212,
		-6.054594039916992],
		"max":[5.948746681213379,
		42.729286193847659,
		5.842895984649658]
	},
	{
		"bufferView":3,
		"type":"VEC3",
		"componentType":5126,
		"count":2770,
		"byteOffset":12,
		"min":[-0.9999688267707825,
		-0.9999688267707825,
		-0.9999688267707825],
		"max":[0.9999688267707825,
		0.9999688267707825,
		0.9999688267707825]
	}],
	"bufferViews":[{
		"buffer":0,
		"byteOffset":0,
		"byteLength":14568,
		"target":34963
	},
	{
		"buffer":0,
		"byteOffset":14568,
		"byteLength":29184,
		"target":34962,
		"byteStride":24
	},
	{
		"buffer":1,
		"byteOffset":0,
		"byteLength":33216,
		"target":34963
	},
	{
		"buffer":1,
		"byteOffset":33216,
		"byteLength":66480,
		"target":34962,
		"byteStride":24
	}],
	"buffers":[{
		"uri":"data:application/octet-stream;base64,",
		"byteLength":43752
	},
	{
		"uri":"data:application/octet-stream;base64,",
		"byteLength":99696
	}]
}