{
	"nodes":[{
		"name":"ceinture_requin",
		"translation":[0.4652586579322815,
		-0.08288443833589554,
		2.294187545776367],
		"rotation":[0.0,
		0.0,
		0.0,
		-1.0],
		"scale":[1.0,
		1.0,
		1.0],
		"mesh":0
	},
	{
		"name":"Aileron",
		"translation":[0.0,
		-0.6940968036651611,
		0.0],
		"rotation":[0.0,
		0.0,
		0.0,
		-1.0],
		"scale":[1.0,
		1.0,
		1.0],
		"children":[2]
	},
	{
		"name":"Aileron requin",
		"translation":[0.0,
		0.0,
		0.0],
		"rotation":[0.0,
		0.0,
		0.0,
		-1.0],
		"scale":[1.0,
		1.0,
		1.0],
		"children":[3]
	},
	{
		"name":"Aileron requin",
		"translation":[0.4652586579322815,
		0.20866788923740388,
		2.294187545776367],
		"rotation":[0.0,
		0.0,
		0.0,
		-1.0],
		"scale":[1.0,
		1.0,
		1.0],
		"mesh":1
	},
	{
		"name":"Requin",
		"translation":[0.0,
		0.0,
		0.0],
		"rotation":[0.0,
		0.0,
		0.0,
		-1.0],
		"scale":[1.0,
		1.0,
		1.0],
		"children":[5]
	},
	{
		"name":"Requin subdivision",
		"translation":[0.0,
		0.0,
		0.0],
		"rotation":[0.0,
		0.0,
		0.0,
		-1.0],
		"scale":[1.0,
		1.0,
		1.0],
		"children":[6]
	},
	{
		"name":"Requin",
		"translation":[0.4652586579322815,
		-0.08288443833589554,
		2.294187545776367],
		"rotation":[0.0,
		0.0,
		0.0,
		-1.0],
		"scale":[1.0,
		1.0,
		1.0],
		"mesh":2
	}],
	"asset":{
		"version":"2.0",
		"generator":"Created using the official Cinema 4D glTF Exporter 1.000x284978"
	},
	"textures":[{
		"source":0,
		"sampler":0
	}],
	"scenes":[{
		"nodes":[0,
		1,
		4]
	}],
	"samplers":[{
		"magFilter":9729,
		"minFilter":9729,
		"wrapS":10497,
		"wrapT":10497
	}],
	"meshes":[{
		"name":"ceinture_requin",
		"primitives":[{
			"attributes":{
				"POSITION":1,
				"NORMAL":2,
				"TEXCOORD_0":3
			},
			"indices":0,
			"material":0
		}]
	},
	{
		"name":"Aileron requin",
		"primitives":[{
			"attributes":{
				"POSITION":5,
				"NORMAL":6,
				"TEXCOORD_0":7
			},
			"indices":4
		}]
	},
	{
		"name":"Requin",
		"primitives":[{
			"attributes":{
				"POSITION":9,
				"NORMAL":10,
				"TEXCOORD_0":11
			},
			"indices":8
		}]
	}],
	"accessors":[{
		"bufferView":0,
		"type":"SCALAR",
		"componentType":5123,
		"count":1062,
		"byteOffset":0,
		"min":[0],
		"max":[478]
	},
	{
		"bufferView":1,
		"type":"VEC3",
		"componentType":5126,
		"count":479,
		"byteOffset":0,
		"min":[-16.421770095825197,
		-9.491823196411133,
		-55.1535530090332],
		"max":[21.5833683013916,
		8.850138664245606,
		39.28644561767578]
	},
	{
		"bufferView":1,
		"type":"VEC3",
		"componentType":5126,
		"count":479,
		"byteOffset":12,
		"min":[-0.9990094304084778,
		-0.997123122215271,
		-0.9896920919418335],
		"max":[0.9957233667373657,
		0.9922146797180176,
		0.9439100623130798]
	},
	{
		"bufferView":1,
		"type":"VEC2",
		"componentType":5126,
		"count":479,
		"byteOffset":24,
		"min":[0.0006518454756587744,
		0.0006518454756587744],
		"max":[0.9575492739677429,
		0.9980506896972656]
	},
	{
		"bufferView":2,
		"type":"SCALAR",
		"componentType":5123,
		"count":2280,
		"byteOffset":0,
		"min":[0],
		"max":[500]
	},
	{
		"bufferView":3,
		"type":"VEC3",
		"componentType":5126,
		"count":501,
		"byteOffset":0,
		"min":[1.6875555515289307,
		7.4883832931518559,
		-1.6821355819702149],
		"max":[4.128465175628662,
		17.132186889648439,
		8.756532669067383]
	},
	{
		"bufferView":3,
		"type":"VEC3",
		"componentType":5126,
		"count":501,
		"byteOffset":12,
		"min":[-0.9997669458389282,
		-0.9994153380393982,
		-0.9939997792243958],
		"max":[0.9986585974693298,
		0.8665233254432678,
		0.9585549235343933]
	},
	{
		"bufferView":3,
		"type":"VEC2",
		"componentType":5126,
		"count":501,
		"byteOffset":24,
		"min":[0.0,
		0.19523200392723084],
		"max":[0.0,
		0.48965495824813845]
	},
	{
		"bufferView":4,
		"type":"SCALAR",
		"componentType":5123,
		"count":18288,
		"byteOffset":0,
		"min":[0],
		"max":[3257]
	},
	{
		"bufferView":5,
		"type":"VEC3",
		"componentType":5126,
		"count":3258,
		"byteOffset":0,
		"min":[-14.38667106628418,
		-8.360771179199219,
		-54.85468673706055],
		"max":[19.538314819335939,
		8.637206077575684,
		37.9992561340332]
	},
	{
		"bufferView":5,
		"type":"VEC3",
		"componentType":5126,
		"count":3258,
		"byteOffset":12,
		"min":[-0.9999151229858398,
		-0.9999092221260071,
		-0.9998465180397034],
		"max":[0.9993671774864197,
		0.9995589852333069,
		0.9953345656394959]
	},
	{
		"bufferView":5,
		"type":"VEC2",
		"componentType":5126,
		"count":3258,
		"byteOffset":24,
		"min":[0.0,
		0.0],
		"max":[1.0,
		1.0]
	}],
	"bufferViews":[{
		"buffer":0,
		"byteOffset":0,
		"byteLength":2124,
		"target":34963
	},
	{
		"buffer":0,
		"byteOffset":2124,
		"byteLength":15328,
		"byteStride":32,
		"target":34962
	},
	{
		"buffer":1,
		"byteOffset":0,
		"byteLength":4560,
		"target":34963
	},
	{
		"buffer":1,
		"byteOffset":4560,
		"byteLength":16032,
		"byteStride":32,
		"target":34962
	},
	{
		"buffer":2,
		"byteOffset":0,
		"byteLength":36576,
		"target":34963
	},
	{
		"buffer":2,
		"byteOffset":36576,
		"byteLength":104256,
		"byteStride":32,
		"target":34962
	}],
	"buffers":[{
		"uri":"data:application/octet-stream;base64,",
		"byteLength":17452
	},
	{
		"uri":"data:application/octet-stream;base64,",
		"byteLength":20592
	},
	{
		"uri":"data:application/octet-stream;base64,",
		"byteLength":140832
	}],
	"images":[{
		"uri":"data:image/png;base64,"
	}],
	"materials":[{
		"pbrMetallicRoughness":{
			"baseColorTexture":{
				"index":0
			},
			"baseColorFactor":[0.14399999999999997,
			0.8,
			0.7562666666666663,
			1.0],
			"metallicFactor":1.0,
			"roughnessFactor":1.0
		},
		"emissiveFactor":[0.0,
		0.0,
		0.0],
		"alphaMode":"BLEND",
		"doubleSided":false,
		"name":"Requin"
	}]
}