{
	"scenes":[{
		"nodes":[0]
	}],
	"asset":{
		"generator":"Created using the official Cinema 4D glTF Exporter 1.000x284978",
		"version":"2.0"
	},
	"nodes":[{
		"name":"CoralMerged",
		"translation":[-0.06515690684318543,
		1.4448697566986085,
		6.465399742126465],
		"rotation":[0.0,
		0.0,
		0.0,
		-1.0],
		"scale":[1.0,
		1.0,
		1.0],
		"mesh":0
	}],
	"meshes":[{
		"name":"CoralMerged",
		"primitives":[{
			"attributes":{
				"POSITION":1,
				"NORMAL":2,
				"TEXCOORD_0":3
			},
			"indices":0
		}]
	}],
	"accessors":[{
		"bufferView":0,
		"type":"SCALAR",
		"componentType":5123,
		"count":19527,
		"min":[0],
		"byteOffset":0,
		"max":[6981]
	},
	{
		"bufferView":1,
		"type":"VEC3",
		"componentType":5126,
		"count":6982,
		"min":[-36.138179779052737,
		-4.302325248718262,
		-32.67032241821289],
		"byteOffset":0,
		"max":[32.69851303100586,
		36.579410552978519,
		31.7337589263916]
	},
	{
		"bufferView":1,
		"type":"VEC3",
		"componentType":5126,
		"count":6982,
		"min":[-0.9999713897705078,
		-1.0,
		-0.999779999256134],
		"byteOffset":12,
		"max":[0.999808669090271,
		1.0,
		0.9998787641525269]
	},
	{
		"bufferView":1,
		"type":"VEC2",
		"componentType":5126,
		"count":6982,
		"min":[0.0016642108093947173,
		0.0016642108093947173],
		"byteOffset":24,
		"max":[0.9950248599052429,
		0.991034746170044]
	}],
	"bufferViews":[{
		"buffer":0,
		"byteOffset":0,
		"byteLength":39054,
		"target":34963
	},
	{
		"buffer":0,
		"byteOffset":39056,
		"byteLength":223424,
		"target":34962,
		"byteStride":32
	}],
	"buffers":[{
		"uri":"data:application/octet-stream;base64,",
		"byteLength":262480
	}]
}