{
	"asset":{
		"version":"2.0",
		"generator":"Created using the official Cinema 4D glTF Exporter 1.000x284978"
	},
	"scenes":[{
		"nodes":[0]
	}],
	"nodes":[{
		"name":"CoralBundle",
		"translation":[-4.7820281982421879,
		0.4593769907951355,
		0.3396304249763489],
		"rotation":[0.0,
		0.0,
		0.0,
		-1.0],
		"scale":[1.0,
		1.0,
		1.0],
		"mesh":0
	}],
	"meshes":[{
		"name":"CoralBundle",
		"primitives":[{
			"attributes":{
				"POSITION":1,
				"NORMAL":2,
				"TEXCOORD_0":3
			},
			"indices":0
		}]
	}],
	"accessors":[{
		"bufferView":0,
		"type":"SCALAR",
		"componentType":5123,
		"count":19596,
		"byteOffset":0,
		"min":[0],
		"max":[9069]
	},
	{
		"bufferView":1,
		"type":"VEC3",
		"componentType":5126,
		"count":9070,
		"byteOffset":0,
		"min":[-1.8629701137542725,
		-0.74411541223526,
		-10.251925468444825],
		"max":[9.528026580810547,
		5.555229663848877,
		1.9175388813018799]
	},
	{
		"bufferView":1,
		"type":"VEC3",
		"componentType":5126,
		"count":9070,
		"byteOffset":12,
		"min":[-0.9997245073318481,
		-0.9991927742958069,
		-0.9999904036521912],
		"max":[0.9999035000801086,
		1.0,
		0.9999193549156189]
	},
	{
		"bufferView":1,
		"type":"VEC2",
		"componentType":5126,
		"count":9070,
		"byteOffset":24,
		"min":[0.0,
		-0.05435943603515625],
		"max":[1.0,
		1.0]
	}],
	"bufferViews":[{
		"buffer":0,
		"byteOffset":0,
		"byteLength":39192,
		"target":34963
	},
	{
		"buffer":0,
		"byteOffset":39192,
		"byteLength":290240,
		"target":34962,
		"byteStride":32
	}],
	"buffers":[{
		"uri":"data:application/octet-stream;base64,",
		"byteLength":329432
	}]
}