{
	"asset":{
		"version":"2.0",
		"generator":"Created using the official Cinema 4D glTF Exporter 1.000x284978"
	},
	"scenes":[{
		"nodes":[0]
	}],
	"buffers":[{
		"uri":"data:application/octet-stream;base64,",
		"byteLength":34912
	}],
	"nodes":[{
		"name":"StarFish",
		"mesh":0
	}],
	"meshes":[{
		"name":"StarFish",
		"primitives":[{
			"attributes":{
				"POSITION":1,
				"NORMAL":2,
				"TEXCOORD_0":3
			},
			"indices":0
		}]
	}],
	"accessors":[{
		"max":[931],
		"bufferView":0,
		"type":"SCALAR",
		"componentType":5123,
		"count":2544,
		"byteOffset":0,
		"min":[0]
	},
	{
		"max":[4.21891450881958,
		1.206749439239502,
		4.122726917266846],
		"bufferView":1,
		"type":"VEC3",
		"componentType":5126,
		"count":932,
		"byteOffset":0,
		"min":[-4.192294597625732,
		-1.222362756729126,
		-4.137107849121094]
	},
	{
		"max":[0.9886478185653687,
		0.9991194605827332,
		0.9896692037582398],
		"bufferView":1,
		"type":"VEC3",
		"componentType":5126,
		"count":932,
		"byteOffset":12,
		"min":[-0.9851316213607788,
		-0.9999491572380066,
		-0.9805275797843933]
	},
	{
		"max":[0.969482421875,
		0.9670088291168213],
		"bufferView":1,
		"type":"VEC2",
		"componentType":5126,
		"count":932,
		"byteOffset":24,
		"min":[0.029296875,
		0.05244088172912598]
	}],
	"bufferViews":[{
		"buffer":0,
		"byteOffset":0,
		"byteLength":5088,
		"target":34963
	},
	{
		"buffer":0,
		"byteOffset":5088,
		"byteLength":29824,
		"target":34962,
		"byteStride":32
	}]
}