{
	"asset":{
		"version":"2.0",
		"generator":"Created using the official Cinema 4D glTF Exporter 1.000x284978"
	},
	"scenes":[{
		"nodes":[0]
	}],
	"nodes":[{
		"name":"CoralBundle",
		"translation":[-4.7820281982421879,
		0.4593769907951355,
		0.3396304249763489],
		"rotation":[0.0,
		0.0,
		0.0,
		-1.0],
		"scale":[1.0,
		1.0,
		1.0],
		"children":[1,
		4,
		10]
	},
	{
		"name":"SeaFan",
		"translation":[5.209381580352783,
		-0.37631022930145266,
		-2.967214822769165],
		"rotation":[0.0,
		0.0,
		0.0,
		-1.0],
		"scale":[1.0,
		1.0,
		1.0],
		"children":[2,
		3]
	},
	{
		"name":"SeaFan1",
		"translation":[-1.1466764211654664,
		0.18199807405471803,
		-5.568666458129883],
		"rotation":[0.0,
		-0.009376569651067257,
		0.0,
		-0.9999560117721558],
		"scale":[1.0,
		1.0,
		1.0],
		"mesh":0
	},
	{
		"name":"SeaFan",
		"translation":[-3.18405818939209,
		0.18199807405471803,
		2.6323673725128176],
		"rotation":[0.0,
		-0.5809145569801331,
		0.0,
		0.8139645457267761],
		"scale":[1.0,
		1.0,
		1.0],
		"mesh":1
	},
	{
		"name":"CoralTube",
		"translation":[1.3242522478103638,
		0.4593769907951355,
		-5.348649978637695],
		"rotation":[0.0,
		0.0,
		0.0,
		-1.0],
		"scale":[1.0,
		1.0,
		1.0],
		"children":[5,
		6,
		7,
		8,
		9]
	},
	{
		"name":"Tube1",
		"translation":[-1.0282896757125855,
		-0.6733096837997437,
		0.06823638081550598],
		"rotation":[0.0,
		-0.9455185532569885,
		0.0,
		-0.32556816935539248],
		"scale":[1.0,
		1.0,
		1.0],
		"mesh":2
	},
	{
		"name":"Tube2",
		"translation":[-0.09421893209218979,
		-0.07454569637775421,
		0.8684234619140625],
		"rotation":[0.0,
		0.0,
		0.0,
		-1.0],
		"scale":[1.0,
		1.0,
		1.0],
		"mesh":3
	},
	{
		"name":"Tube3",
		"translation":[0.046695008873939517,
		0.7870434522628784,
		0.22376477718353272],
		"rotation":[0.0,
		0.0,
		0.0,
		-1.0],
		"scale":[1.0,
		1.0,
		1.0],
		"mesh":4
	},
	{
		"name":"Tube4",
		"translation":[0.7304209470748901,
		0.03535759449005127,
		-0.3264865279197693],
		"rotation":[0.0,
		0.0,
		0.0,
		-1.0],
		"scale":[1.0,
		1.0,
		1.0],
		"mesh":5
	},
	{
		"name":"Tube5",
		"translation":[-0.34600451588630679,
		-0.07454569637775421,
		-0.5757774710655212],
		"rotation":[0.0,
		-0.7749444842338562,
		0.0,
		-0.6320292949676514],
		"scale":[1.0,
		1.0,
		1.0],
		"mesh":6
	},
	{
		"name":"Verrues",
		"translation":[8.708456039428711,
		-0.6704057455062866,
		-0.594792902469635],
		"rotation":[0.0,
		0.0,
		0.0,
		-1.0],
		"scale":[1.0,
		1.0,
		1.0],
		"mesh":7
	}],
	"meshes":[{
		"name":"SeaFan1",
		"primitives":[{
			"attributes":{
				"POSITION":1,
				"NORMAL":2,
				"TEXCOORD_0":3
			},
			"indices":0
		}]
	},
	{
		"name":"SeaFan",
		"primitives":[{
			"attributes":{
				"POSITION":5,
				"NORMAL":6,
				"TEXCOORD_0":7
			},
			"indices":4
		}]
	},
	{
		"name":"Tube1",
		"primitives":[{
			"attributes":{
				"POSITION":9,
				"NORMAL":10,
				"TEXCOORD_0":11
			},
			"indices":8
		}]
	},
	{
		"name":"Tube2",
		"primitives":[{
			"attributes":{
				"POSITION":13,
				"NORMAL":14,
				"TEXCOORD_0":15
			},
			"indices":12
		}]
	},
	{
		"name":"Tube3",
		"primitives":[{
			"attributes":{
				"POSITION":17,
				"NORMAL":18,
				"TEXCOORD_0":19
			},
			"indices":16
		}]
	},
	{
		"name":"Tube4",
		"primitives":[{
			"attributes":{
				"POSITION":21,
				"NORMAL":22,
				"TEXCOORD_0":23
			},
			"indices":20
		}]
	},
	{
		"name":"Tube5",
		"primitives":[{
			"attributes":{
				"POSITION":25,
				"NORMAL":26,
				"TEXCOORD_0":27
			},
			"indices":24
		}]
	},
	{
		"name":"Verrues",
		"primitives":[{
			"attributes":{
				"POSITION":29,
				"NORMAL":30,
				"TEXCOORD_0":31
			},
			"indices":28
		}]
	}],
	"accessors":[{
		"bufferView":0,
		"type":"SCALAR",
		"componentType":5123,
		"count":2712,
		"byteOffset":0,
		"min":[0],
		"max":[1868]
	},
	{
		"bufferView":1,
		"type":"VEC3",
		"componentType":5126,
		"count":1869,
		"byteOffset":0,
		"min":[-4.329777240753174,
		-0.059821244329214099,
		-3.82645845413208],
		"max":[3.6466434001922609,
		9.391393661499024,
		3.214103937149048]
	},
	{
		"bufferView":1,
		"type":"VEC3",
		"componentType":5126,
		"count":1869,
		"byteOffset":12,
		"min":[-0.9986735582351685,
		-0.998624861240387,
		-0.9998618960380554],
		"max":[0.9986698627471924,
		1.0,
		1.0]
	},
	{
		"bufferView":1,
		"type":"VEC2",
		"componentType":5126,
		"count":1869,
		"byteOffset":24,
		"min":[0.00198406632989645,
		0.0020505189895629884],
		"max":[0.9936245083808899,
		0.9980078935623169]
	},
	{
		"bufferView":2,
		"type":"SCALAR",
		"componentType":5123,
		"count":4122,
		"byteOffset":0,
		"min":[0],
		"max":[2489]
	},
	{
		"bufferView":3,
		"type":"VEC3",
		"componentType":5126,
		"count":2490,
		"byteOffset":0,
		"min":[-6.782281398773193,
		-0.095830537378788,
		-5.912158489227295],
		"max":[5.803806304931641,
		14.707938194274903,
		5.151696681976318]
	},
	{
		"bufferView":3,
		"type":"VEC3",
		"componentType":5126,
		"count":2490,
		"byteOffset":12,
		"min":[-0.9994328022003174,
		-0.9991927742958069,
		-1.0],
		"max":[0.999942421913147,
		0.999655544757843,
		0.9999790191650391]
	},
	{
		"bufferView":3,
		"type":"VEC2",
		"componentType":5126,
		"count":2490,
		"byteOffset":24,
		"min":[0.00198406632989645,
		0.0019919872283935549],
		"max":[0.9936245083808899,
		0.9980078935623169]
	},
	{
		"bufferView":4,
		"type":"SCALAR",
		"componentType":5123,
		"count":414,
		"byteOffset":0,
		"min":[0],
		"max":[149]
	},
	{
		"bufferView":5,
		"type":"VEC3",
		"componentType":5126,
		"count":150,
		"byteOffset":0,
		"min":[-0.5531343221664429,
		-0.5286201238632202,
		-0.3792891204357147],
		"max":[0.44815492630004885,
		0.5286201238632202,
		0.3735238015651703]
	},
	{
		"bufferView":5,
		"type":"VEC3",
		"componentType":5126,
		"count":150,
		"byteOffset":12,
		"min":[-0.9778393507003784,
		-1.0,
		-0.9972681403160095],
		"max":[0.9876343011856079,
		1.0,
		0.9968854784965515]
	},
	{
		"bufferView":5,
		"type":"VEC2",
		"componentType":5126,
		"count":150,
		"byteOffset":24,
		"min":[0.0,
		-0.05435943603515625],
		"max":[1.0,
		1.0]
	},
	{
		"bufferView":6,
		"type":"SCALAR",
		"componentType":5123,
		"count":510,
		"byteOffset":0,
		"min":[0],
		"max":[184]
	},
	{
		"bufferView":7,
		"type":"VEC3",
		"componentType":5126,
		"count":185,
		"byteOffset":0,
		"min":[-0.4664524793624878,
		-1.1201410293579102,
		-0.37357184290885928],
		"max":[0.41883882880210879,
		1.124366044998169,
		0.3363037109375]
	},
	{
		"bufferView":7,
		"type":"VEC3",
		"componentType":5126,
		"count":185,
		"byteOffset":12,
		"min":[-0.9859488606452942,
		-1.0,
		-0.9996531009674072],
		"max":[0.9930574893951416,
		1.0,
		0.9980387091636658]
	},
	{
		"bufferView":7,
		"type":"VEC2",
		"componentType":5126,
		"count":185,
		"byteOffset":24,
		"min":[0.012235870584845543,
		-0.01777549460530281],
		"max":[1.0,
		1.0]
	},
	{
		"bufferView":8,
		"type":"SCALAR",
		"componentType":5123,
		"count":684,
		"byteOffset":0,
		"min":[0],
		"max":[210]
	},
	{
		"bufferView":9,
		"type":"VEC3",
		"componentType":5126,
		"count":211,
		"byteOffset":0,
		"min":[-0.34310534596443179,
		-1.9796490669250489,
		-0.41820022463798525],
		"max":[0.7556190490722656,
		1.9834508895874024,
		0.4286910593509674]
	},
	{
		"bufferView":9,
		"type":"VEC3",
		"componentType":5126,
		"count":211,
		"byteOffset":12,
		"min":[-0.9930406212806702,
		-1.0,
		-0.9982182383537293],
		"max":[0.9977125525474548,
		1.0,
		0.9998396039009094]
	},
	{
		"bufferView":9,
		"type":"VEC2",
		"componentType":5126,
		"count":211,
		"byteOffset":24,
		"min":[0.0,
		-0.036177024245262149],
		"max":[1.0,
		1.0]
	},
	{
		"bufferView":10,
		"type":"SCALAR",
		"componentType":5123,
		"count":558,
		"byteOffset":0,
		"min":[0],
		"max":[171]
	},
	{
		"bufferView":11,
		"type":"VEC3",
		"componentType":5126,
		"count":172,
		"byteOffset":0,
		"min":[-0.7280375361442566,
		-1.2388499975204468,
		-0.4531340003013611],
		"max":[0.5587878823280335,
		1.2418708801269532,
		0.4531340003013611]
	},
	{
		"bufferView":11,
		"type":"VEC3",
		"componentType":5126,
		"count":172,
		"byteOffset":12,
		"min":[-0.9769333004951477,
		-1.0,
		-0.9982985854148865],
		"max":[0.9980455636978149,
		1.0,
		0.9982985854148865]
	},
	{
		"bufferView":11,
		"type":"VEC2",
		"componentType":5126,
		"count":172,
		"byteOffset":24,
		"min":[0.0,
		-0.019872892647981645],
		"max":[1.0,
		1.0]
	},
	{
		"bufferView":12,
		"type":"SCALAR",
		"componentType":5123,
		"count":522,
		"byteOffset":0,
		"min":[0],
		"max":[194]
	},
	{
		"bufferView":13,
		"type":"VEC3",
		"componentType":5126,
		"count":195,
		"byteOffset":0,
		"min":[-0.45415589213371279,
		-1.1201410293579102,
		-0.338657021522522],
		"max":[0.41883882880210879,
		1.124366044998169,
		0.38802167773246767]
	},
	{
		"bufferView":13,
		"type":"VEC3",
		"componentType":5126,
		"count":195,
		"byteOffset":12,
		"min":[-0.9822311401367188,
		-1.0,
		-0.998432457447052],
		"max":[0.9962149858474731,
		1.0,
		0.9983591437339783]
	},
	{
		"bufferView":13,
		"type":"VEC2",
		"componentType":5126,
		"count":195,
		"byteOffset":24,
		"min":[0.0,
		-0.05279696732759476],
		"max":[1.0,
		1.0]
	},
	{
		"bufferView":14,
		"type":"SCALAR",
		"componentType":5123,
		"count":10074,
		"byteOffset":0,
		"min":[0],
		"max":[4173]
	},
	{
		"bufferView":15,
		"type":"VEC3",
		"componentType":5126,
		"count":4174,
		"byteOffset":0,
		"min":[-10.571426391601563,
		0.2147844284772873,
		-9.657133102416993],
		"max":[0.8195705413818359,
		2.4587619304656984,
		2.51233172416687]
	},
	{
		"bufferView":15,
		"type":"VEC3",
		"componentType":5126,
		"count":4174,
		"byteOffset":12,
		"min":[-0.9995894432067871,
		-1.0,
		-0.9999633431434631],
		"max":[0.9994180202484131,
		0.9986142516136169,
		0.999916136264801]
	},
	{
		"bufferView":15,
		"type":"VEC2",
		"componentType":5126,
		"count":4174,
		"byteOffset":24,
		"min":[0.03125,
		0.03125],
		"max":[0.96875,
		0.96875]
	}],
	"bufferViews":[{
		"buffer":0,
		"byteOffset":0,
		"byteLength":5424,
		"target":34963
	},
	{
		"buffer":0,
		"byteOffset":5424,
		"byteLength":59808,
		"target":34962,
		"byteStride":32
	},
	{
		"buffer":1,
		"byteOffset":0,
		"byteLength":8244,
		"target":34963
	},
	{
		"buffer":1,
		"byteOffset":8244,
		"byteLength":79680,
		"target":34962,
		"byteStride":32
	},
	{
		"buffer":2,
		"byteOffset":0,
		"byteLength":828,
		"target":34963
	},
	{
		"buffer":2,
		"byteOffset":828,
		"byteLength":4800,
		"target":34962,
		"byteStride":32
	},
	{
		"buffer":3,
		"byteOffset":0,
		"byteLength":1020,
		"target":34963
	},
	{
		"buffer":3,
		"byteOffset":1020,
		"byteLength":5920,
		"target":34962,
		"byteStride":32
	},
	{
		"buffer":4,
		"byteOffset":0,
		"byteLength":1368,
		"target":34963
	},
	{
		"buffer":4,
		"byteOffset":1368,
		"byteLength":6752,
		"target":34962,
		"byteStride":32
	},
	{
		"buffer":5,
		"byteOffset":0,
		"byteLength":1116,
		"target":34963
	},
	{
		"buffer":5,
		"byteOffset":1116,
		"byteLength":5504,
		"target":34962,
		"byteStride":32
	},
	{
		"buffer":6,
		"byteOffset":0,
		"byteLength":1044,
		"target":34963
	},
	{
		"buffer":6,
		"byteOffset":1044,
		"byteLength":6240,
		"target":34962,
		"byteStride":32
	},
	{
		"buffer":7,
		"byteOffset":0,
		"byteLength":20148,
		"target":34963
	},
	{
		"buffer":7,
		"byteOffset":20148,
		"byteLength":133568,
		"target":34962,
		"byteStride":32
	}],
	"buffers":[{
		"uri":"data:application/octet-stream;base64,",
		"byteLength":65232
	},
	{
		"uri":"data:application/octet-stream;base64,",
		"byteLength":87924
	},
	{
		"uri":"data:application/octet-stream;base64,",
		"byteLength":5628
	},
	{
		"uri":"data:application/octet-stream;base64,",
		"byteLength":6940
	},
	{
		"uri":"data:application/octet-stream;base64,",
		"byteLength":8120
	},
	{
		"uri":"data:application/octet-stream;base64,",
		"byteLength":6620
	},
	{
		"uri":"data:application/octet-stream;base64,",
		"byteLength":7284
	},
	{
		"uri":"data:application/octet-stream;base64,",
		"byteLength":153716
	}]
}